<svg xmlns="http://www.w3.org/2000/svg" width="1000" height="1000" xmlns:v="https://vecta.io/nano"><style>@media(prefers-color-scheme: dark){.A{fill:#f0f0f0}}</style><path class="A" d="M691 943.5V937h15 15v3.5 3.5h-8-8v3 3h-7-7zm-79-9.5c0-4.667-.417-8-1-8-.55 0-1-.675-1-1.5 0-1.238-1.833-1.5-10.5-1.5H589v-6.5-6.5h-9.5-9.5v-12.923-12.923l-3.077-3.077c-1.692-1.692-3.392-3.077-3.778-3.077s-1.469-.788-2.408-1.75-2.951-2.759-4.472-3.992l-5.765-4.749c-1.65-1.379-3.788-2.507-4.75-2.508C544.15 865 544 863.5 544 847.5V830h-6.5-6.5v17.5V865h-5.5-5.5v-13.313-13.313l-3-2.874c-1.65-1.581-3-3.417-3-4.08s-.675-1.465-1.5-1.782-1.5-1.417-1.5-2.446-1.125-2.383-2.5-3.01-2.5-1.599-2.5-2.161-.465-1.021-1.034-1.021C503.568 821 490 807.494 490 806.103c0-.607-.412-1.103-.915-1.103s-4.323-3.375-8.488-7.5-7.823-7.5-8.127-7.5-1.538-.917-2.741-2.038-6.022-3.198-10.708-4.616-8.971-2.911-9.521-3.318c-1.522-1.125-9.993-3.028-13.478-3.028-3.597 0-8.022 2.583-8.022 4.682 0 1.521 6.652 8.318 8.14 8.318.473 0 .86.45.86 1s.399 1 .886 1c1.143 0 13.073 7.959 15.363 10.249.963.963 2.221 1.751 2.795 1.751s5.285 4.163 10.469 9.25l15.206 14.908c7.144 6.992 8.281 8.387 8.281 10.16 0 .771 1.098 2.227 2.44 3.234s2.7 2.871 3.019 4.14 1.021 2.308 1.56 2.308.981.675.981 1.5.675 1.5 1.5 1.5c.833 0 1.5.889 1.5 2 0 1.1.45 2 1 2s1 .9 1 2c0 1.111.667 2 1.5 2 .825 0 1.5.66 1.5 1.466 0 1.808 3.222 8.911 4.25 9.367 1.354.602.784 4.275-.929 5.988-1.368 1.368-3.713 1.679-12.667 1.679-7.902 0-11.105-.351-11.405-1.25-.255-.764-2.247-1.25-5.123-1.25-5.026 0-16.212-2.552-17.095-3.9-.292-.446-2.219-1.122-4.282-1.501s-3.75-1.011-3.75-1.405-4.05-2.281-9-4.194-9-3.822-9-4.24-.717-.76-1.592-.76-2.736-.9-4.135-2-3.072-2-3.719-2-2.062-.788-3.145-1.75-4.122-2.875-6.755-4.25-5.638-3.288-6.678-4.25-2.367-1.75-2.948-1.75c-2.209 0-5.638-2.454-16.43-11.757-3.354-2.891-7.898-6.131-10.098-7.199s-6.025-3.807-8.5-6.087-6.654-5.244-9.287-6.587c-4.264-2.174-5.85-2.41-14.5-2.156l-9.713.286-.258 10.5c-.405 16.501-4.994 70.391-7.537 88.5-1.104 7.862-1.513 9-3.235 9-1.781 0-1.947-.614-1.722-6.378.137-3.508 1.409-12.958 2.828-21 3.702-20.993 4.169-25.904 4.977-52.372.716-23.448.699-23.75-1.307-23.75-1.118 0-2.25.567-2.516 1.26s-2.567 1.817-5.113 2.498a70.18 70.18 0 0 0-8.874 3.153c-2.334 1.053-6.044 2.448-8.244 3.101s-6.194 2.147-8.875 3.322l-4.875 2.136.603 8.515c1.556 21.98 1.989 26.015 2.789 26.015.472 0 .859 2.475.859 5.5s-.45 5.5-1 5.5-1 .675-1 1.5-.675 1.5-1.5 1.5c-1.259 0-1.5-2.167-1.5-13.5 0-7.425-.397-13.5-.882-13.5s-1.2-3.825-1.59-8.5-1.022-8.5-1.405-8.5c-.703 0-8.556 7.484-10.873 10.363-.687.854-1.25 2.054-1.25 2.666s-.675 1.789-1.5 2.614-1.5 3.23-1.5 5.345c0 2.161-.541 4.025-1.234 4.257-.899.3-1.336 5.339-1.612 18.583-.352 16.948-.503 18.172-2.247 18.172-1.177 0-2.11-.959-2.52-2.59-1.102-4.391.148-33.755 1.455-34.191.636-.212 1.157-1.698 1.157-3.302s.45-2.917 1-2.917 1-1.093 1-2.429.675-3.104 1.5-3.929 1.5-2.223 1.5-3.106c0-1.7 13.39-15.537 15.035-15.537.531 0 .965-2.925.965-6.5s-.391-6.5-.868-6.5c-2.066 0-4.132-11.876-4.132-23.748 0-11.407-.122-12.156-2.087-12.779-1.99-.632-5.911 2.177-5.914 4.236 0 .435-4.107.931-9.126 1.1-5.041.17-10.803.98-12.875 1.809l-3.75 1.5-.699 8.941c-.385 4.918-1.065 8.941-1.511 8.941s-1.115 2.025-1.486 4.5-1.047 4.5-1.502 4.5-1.123 1.575-1.484 3.5-1.086 3.5-1.611 3.5-.955.9-.955 2-.4 2-.889 2-1.184 1.575-1.545 3.5-1.047 3.5-1.523 3.5-1.165 1.765-1.529 3.922c-.634 3.756-3.023 6.033-4.573 4.361-.964-1.04.042-7.283 1.173-7.283.488 0 .887-.9.887-2s.392-2 .872-2 1.16-1.8 1.512-4 1.079-4 1.616-4 1.264-1.8 1.616-4 1.032-4 1.512-4 .872-1.125.872-2.5.435-2.5.966-2.5 1.264-2.25 1.629-5 1.055-5 1.534-5 .871-1.8.871-4c0-3.078-.387-4-1.679-4-3.216 0-8.317 2.411-8.884 4.199-.314.99-.991 1.801-1.504 1.801s-.933.675-.933 1.5-.45 1.5-1 1.5-1 .868-1 1.929-.62 2.549-1.378 3.307-1.694 2.815-2.079 4.571-1.116 3.193-1.622 3.193-.921 1.125-.921 2.5-.45 2.5-1 2.5-1 1.093-1 2.429-.675 3.104-1.5 3.929-1.5 2.625-1.5 4-.675 3.175-1.5 4-1.499 2.095-1.497 2.821c.005 2.273-3.314 15.296-4.032 15.821-.376.275-1.002 3.374-1.392 6.887-.686 6.181-2.17 9.113-4.612 9.113-1.303 0-1.091-2.885 1.102-15 .747-4.125 1.746-7.773 2.22-8.106s1.113-2.471 1.419-4.75.91-4.144 1.343-4.144 1.301-2.138 1.928-4.75l1.742-7.232c.331-1.365 1.204-3.085 1.94-3.821s1.339-2.432 1.339-3.768.445-2.429.988-2.429 1.276-1.8 1.628-4 1.032-4 1.512-4 .872-.675.872-1.5.401-1.5.892-1.5 1.184-1.164 1.541-2.586c1.187-4.731 7.561-11.032 12.723-12.579 3.837-1.149 3.845-1.164 3.845-6.494 0-6.405-.105-6.43-11.497-2.771-10.366 3.329-18.005 7.075-21.339 10.462-4.467 4.539-7.164 7.93-7.164 9.007 0 .563-.675 1.283-1.5 1.599s-1.5 1.223-1.5 2.014-1.085 2.523-2.411 3.849-2.712 3.781-3.079 5.455-1.083 3.044-1.589 3.044-.921.75-.921 1.667-1.578 4.539-3.508 8.048-4.65 9.095-6.046 12.411a306.24 306.24 0 0 1-5.492 12.129c-1.625 3.354-2.954 6.832-2.954 7.727 0 1.732-5.77 16.494-8.411 21.517-.867 1.65-1.58 3.494-1.583 4.097-.009 1.598-3.529 5.403-4.998 5.403-1.63 0-.679-4.981 2.012-10.542 1.089-2.249 1.98-4.446 1.98-4.881s1.316-3.556 2.925-6.934c3.028-6.36 5.123-11.793 7.638-19.806 1.495-4.764 18.188-38.931 19.464-39.837.387-.275 1.045-1.592 1.462-2.927s1.828-3.58 3.135-4.99 2.376-3.082 2.376-3.716.675-1.412 1.5-1.729 1.5-1.168 1.5-1.891 1.463-2.158 3.25-3.188 3.982-2.589 4.877-3.466c4.098-4.013 6.47-5.149 18.267-8.751l12.589-3.843.008-3.75c.004-2.063-.442-3.75-.992-3.75s-1-2.25-1-5-.45-5-1-5-1-2.25-1-5c0-2.889.452-5 1.071-5 .636 0 .534-.537-.25-1.321-1.403-1.403-10.217-4.679-12.589-4.679-1.559 0-10.233-8.509-10.233-10.038 0-.529-.392-.962-.872-.962s-1.16-1.8-1.512-4-1.052-4-1.556-4-1.225-2.475-1.603-5.5-1.085-5.5-1.572-5.5-.885-4.05-.885-9 .414-9 .921-9 1.217-1.35 1.579-3 1.043-3 1.512-3 1.173-1.013 1.564-2.25 1.828-3.213 3.194-4.391c2.415-2.082 2.359-4.359-.108-4.359-.671 0-1.869-.9-2.662-2-.996-1.381-2.589-2-5.149-2-2.039 0-4.314-.606-5.054-1.347s-3.023-1.661-5.071-2.045S198 661.48 198 660.955s-.447-.955-.993-.955c-1.614 0-9.007-3.412-9.007-4.156 0-.377-1.35-.981-3-1.344s-3-1.073-3-1.579-.639-.921-1.419-.921c-1.433 0-7.654-2.981-8.58-4.111-.275-.336-2.911-.837-5.857-1.113s-5.646-.938-6-1.471-3.006-1.808-5.893-2.834-5.25-2.176-5.25-2.556-1.575-.987-3.5-1.348-3.5-1.086-3.5-1.611-.853-.955-1.895-.955-6.329-1.755-11.75-3.899L109 624.514c-16.032-6.223-30-12.527-30-13.538 0-.351-1.237-1.267-2.75-2.036C70.324 605.925 60 597.315 60 595.386c0-.501-1.125-1.756-2.5-2.789s-2.5-2.489-2.5-3.237-.675-1.36-1.5-1.36c-.833 0-1.5-.889-1.5-2 0-1.1-.45-2-1-2s-1-.707-1-1.571-.562-2.199-1.25-2.965c-3.125-3.484-3.75-4.484-3.75-5.992 0-3.485 4.282-5.451 8.418-3.864 1.733.665 2.254 6.393.582 6.393-.55 0-1 .675-1 1.5s.45 1.5 1 1.5 1 .868 1 1.929.675 2.604 1.5 3.429 1.5 1.776 1.5 2.114c0 1.806 10.461 11.976 17 16.527 1.925 1.34 4.095 3.013 4.821 3.719S81.577 608 82.107 608s5.111 1.97 10.179 4.377 11.828 5.336 15.023 6.508 8.662 3.465 12.149 5.095 8.073 3.372 10.192 3.87 7.845 2.535 12.727 4.528 9.719 3.622 10.75 3.622 1.874.441 1.874.981 1.233 1.29 2.74 1.669 3.322 1.27 4.034 1.981c1.387 1.387 7.557 3.354 10.548 3.363 1.002.003 2.496.681 3.321 1.506s2.818 1.5 4.429 1.5 2.929.367 2.929.815c0 .996 6.504 4.185 8.534 4.185.806 0 1.466.42 1.466.933s1.012 1.249 2.25 1.635 2.475 1.01 2.75 1.386c.715.978 8.746 4.046 10.592 4.046.853 0 2.226.675 3.051 1.5s2.368 1.5 3.429 1.5 1.929.675 1.929 1.5c0 1.083 1.111 1.5 4 1.5 2.2 0 4 .45 4 1 0 1.455 8.916 1.227 10.409-.266.881-.881 1.45-6.856 1.871-19.655.403-12.263.991-18.628 1.764-19.105.7-.433 1.373-4.923 1.701-11.345.298-5.846.928-10.628 1.399-10.628s.856-3.375.856-7.5c0-4.236-.427-7.5-.981-7.5-1.357 0-2.339-4.415-1.542-6.928.892-2.809 6.415-2.847 8.801-.061 2.114 2.469 2.162 3.691.222 5.631-.965.965-1.5 3.437-1.5 6.929 0 2.986-.384 5.429-.853 5.429s-1.106 5.5-1.416 12.222c-.341 7.408-.99 12.364-1.647 12.583-.616.205-1.084 2.917-1.084 6.278 0 3.278-.446 5.917-1 5.917-.616 0-1 5.024-1 13.071 0 15.253.333 15.929 7.845 15.929 2.743 0 5.138.437 5.321.971.359 1.046 2.709 1.44 7.083 1.188 3.322-.191 3.883-3.664.752-4.658-1.099-.349-2.264-1.696-2.59-2.995s-1.227-2.604-2.002-2.902c-.845-.324-1.41-1.956-1.41-4.072 0-1.942-.45-3.531-1-3.531-.634 0-1-7.5-1-20.5s.366-20.5 1-20.5c.643 0 1-10.167 1-28.5s-.357-28.5-1-28.5c-.55 0-1-2.25-1-5s-.416-5-.925-5-1.242-4.05-1.629-9-1.096-9-1.575-9-.871-4.275-.871-9.5.385-9.5.856-9.5 1.103-4.823 1.403-10.718c.328-6.419.987-10.864 1.644-11.083.644-.215 1.097-3.016 1.097-6.782 0-3.529.388-6.417.861-6.417s1.095-4.103 1.381-9.118.976-9.402 1.533-9.75 1.338-4.12 1.736-8.382 1.12-7.75 1.606-7.75.883-5.175.883-11.5c0-7 .391-11.5 1-11.5.55 0 1-1.318 1-2.929s.62-3.549 1.378-4.307 1.694-2.815 2.079-4.571 1.116-3.193 1.622-3.193.921-1.35.921-3 .392-3 .871-3 1.176-2.7 1.55-6 1.05-6 1.504-6 1.03-3.912 1.281-8.694c.282-5.376.902-8.842 1.625-9.083.657-.219 1.169-2.325 1.169-4.806 0-2.429.391-4.417.87-4.417s1.104-2.081 1.391-4.624.953-4.906 1.48-5.25 1.217-2.604 1.533-5.02.955-4.667 1.422-5 1.588-5.056 2.492-10.495 2.065-10.164 2.578-10.5 1.192-2.588 1.508-5.005.996-4.667 1.511-5 1.242-2.856 1.614-5.606c1.606-11.863 3.037-19.5 3.656-19.5.366 0 .928-2.545 1.249-5.656s.968-5.923 1.439-6.25 1.407-2.486 2.083-4.799 1.815-4.792 2.533-5.51 1.614-2.538 1.992-4.045 1.129-2.74 1.669-2.74.981-1.012.981-2.25.9-4.617 2-7.511 2-6.285 2-7.537 1.725-5.635 3.832-9.739 4.896-10.388 6.196-13.963 3.921-8.952 5.825-11.948 4.04-7.37 4.747-9.719 2.436-5.964 3.842-8.034 2.557-4.321 2.557-5.003c0-2.747 5.216-12.777 8.988-17.282 2.207-2.636 4.012-5.139 4.012-5.563 0-.766 7.772-11.497 9.019-12.452 1.446-1.108 9.981-13.473 9.981-14.46 0-.583 1.012-2.196 2.25-3.583 3.004-3.368 8.75-11.804 8.75-12.845 0-.457 3.19-3.706 7.09-7.221l9.25-8.412c1.188-1.112 3.735-3.125 5.66-4.473 4.164-2.916 5.533-3.984 7.798-6.082.936-.867 3.277-2.205 5.202-2.973s4.452-2.421 5.615-3.674S427.034 72 427.407 72c.796 0 3.062-1.788 5.386-4.25.909-.963 2.227-1.75 2.93-1.75S437 65.55 437 65s.852-1 1.893-1 2.152-.675 2.469-1.5 1.265-1.5 2.107-1.5 1.531-.41 1.531-.912 1.8-1.216 4-1.588 4-1.029 4-1.46 1.8-1.072 4-1.424 4-1.084 4-1.628 1.538-.988 3.417-.988 3.604-.562 3.833-1.25c.284-.853 2.822-1.25 7.999-1.25 6.55 0 7.84.297 9.476 2.183 1.041 1.201 3.104 2.487 4.584 2.858S493 56.559 493 56.978s1.584 1.018 3.519 1.332c4.078.662 11.039 7.081 12.05 11.113.356 1.418.983 2.578 1.394 2.578s1.01 3.479 1.332 7.73 1.061 7.889 1.644 8.083 1.079 1.778 1.104 3.52.692 4.967 1.485 7.167 1.448 7.206 1.456 11.124.69 9.037 1.515 11.376 1.5 5.545 1.5 7.126.45 2.874 1 2.874c.564 0 1 2.833 1 6.5s-.436 6.5-1 6.5c-.55 0-1 2.475-1 5.5s.45 5.5 1 5.5 1.002 1.688 1.004 3.75c.002 2.155 1.277 6.303 2.996 9.75 1.646 3.3 2.994 6.563 2.996 7.25S528.45 177 529 177c1.531 0 1.289 14.737-.25 15.25-1.701.567-1.757 18.506-.061 19.557 2.386 1.478 5.512 28.694 6.277 54.644.511 17.321 1.087 25.067 1.885 25.333.83.277 1.16 8.624 1.189 30.05.029 21.487.436 31.734 1.476 37.167.79 4.125 1.883 13.35 2.429 20.5 1.058 13.841 2.399 24.355 4.658 36.5.767 4.125 1.831 11.55 2.364 16.5s1.699 11.475 2.592 14.5c3.211 10.882 3.665 18.042 3.803 60 .14 42.447.137 42.507-2.219 48.5l-3.539 9.156c-.649 1.736-3.638 6.328-6.642 10.204-4.696 6.06-6.192 7.288-10.676 8.765-2.868.945-6.609 2.99-8.312 4.546S520.68 591 520.441 591s-2.712 1.635-5.493 3.633c-4.993 3.587-5.148 3.625-12.252 2.993-6.193-.551-7.66-.356-10.526 1.402-1.989 1.219-6.421 2.408-11 2.95-15.636 1.852-25.683 3.437-26.172 4.13-.277.392-1.627.711-3 .709-6.102-.009-18.115 1.566-18.659 2.446-.615.995 16.877.403 25.658-.868 6.881-.996 21.564 4.068 26.891 9.274 1.313 1.283 2.775 2.332 3.25 2.332s.864.88.864 1.955 1.125 3.08 2.5 4.455 2.5 2.97 2.5 3.545c0 2.158 7.995 9.045 10.5 9.045 1.375 0 2.5.368 2.5.817 0 .912 9.703 4.183 12.409 4.183.953 0 2.409.675 3.234 1.5s2.593 1.5 3.929 1.5c1.614 0 2.429.567 2.429 1.692 0 .931 1.723 3.298 3.828 5.261s5.09 5.477 6.633 7.808 3.134 4.239 3.535 4.239 2.181 2.947 3.954 6.549c3.522 7.155 9.781 14.451 12.396 14.451.91 0 1.655.49 1.655 1.089 0 1.604 8.833 9.911 10.538 9.911.804 0 1.462.45 1.462 1s.837 1 1.86 1 2.705 1.125 3.737 2.5 2.377 2.5 2.987 2.5c1.927 0 4.829 3.327 7.416 8.5 1.375 2.75 2.837 5.15 3.25 5.333s.75.768.75 1.298.922 2.856 2.049 5.167 3.385 7.519 5.018 11.573 3.861 8.624 4.951 10.154S608 750.12 608 750.5s.931 1.998 2.068 3.596c1.491 2.094 2.9 2.904 5.051 2.904h2.983l-2.744-3.75c-1.509-2.062-3.22-4.2-3.801-4.75-1.293-1.223-2.672-4.168-5.621-12-3.152-8.37-11.049-24.931-12.08-25.333-.47-.183-.855-.736-.855-1.228 0-1.284-10.167-11.417-12.25-12.21-.962-.366-1.75-1.13-1.75-1.697s-.868-1.031-1.929-1.031-2.604-.675-3.429-1.5-1.906-1.5-2.402-1.5-1.505-1.125-2.24-2.5-1.77-2.5-2.299-2.5-3.265-2.443-6.081-5.428c-6.214-6.587-6.606-7.096-9.098-11.822-1.088-2.062-2.325-3.75-2.75-3.75s-.773-.52-.773-1.156-1.125-2.631-2.5-4.433-2.5-3.521-2.5-3.818c0-1.17-9.001-9.459-10.94-10.074-1.133-.36-2.06-1.299-2.06-2.086s-.59-1.433-1.311-1.433-2.277-.9-3.458-2c-1.292-1.203-3.529-2-5.617-2-1.909 0-4.145-.675-4.97-1.5s-2.462-1.5-3.637-1.5-3.12-.523-4.321-1.162c-2.912-1.548-8.684-7.357-8.684-8.738 0-.605-.441-1.1-.981-1.1s-1.242-1.039-1.56-2.308-1.677-3.132-3.019-4.14-2.44-2.368-2.44-3.023-1.125-1.793-2.5-2.529-2.5-1.64-2.5-2.009-1.802-1.266-4.005-1.993-3.804-1.523-3.559-1.768 2.835-.643 5.755-.882c4.949-.407 7.568-1.168 12.156-3.534 1.024-.528 4.612-.656 8.05-.288 5.164.553 6.8.329 9.766-1.337 6.681-3.753 8.168-4.689 9.825-6.189 6.694-6.059 8.211-7 11.281-7 2.706 0 4.116-.932 7.986-5.276 9.62-10.799 15.734-23.398 17.673-36.415 2.619-17.582.512-87.507-2.92-96.897-1.023-2.799-2.344-8.199-2.936-12s-1.475-8.936-1.963-11.411c-2.407-12.21-5.133-36.554-5.119-45.715.005-3.418-.889-10.843-1.987-16.5-1.651-8.501-2.01-14.622-2.073-35.285-.042-13.75-.495-27.475-1.008-30.5s-1.381-17.2-1.93-31.5l-1.528-33.662-.53-7.662 3.601-1.188c1.98-.654 4.936-2.493 6.567-4.088s3.594-2.9 4.36-2.9 2.278-1.125 3.359-2.5 2.314-2.5 2.739-2.5c.851 0 1.898-.879 8.229-6.913 2.359-2.248 4.652-4.087 5.095-4.087s1.621-.9 2.616-2 2.227-2 2.737-2 4.378-2.644 8.595-5.876c8.072-6.186 16.177-11.364 27.485-17.562 3.75-2.055 9.256-5.722 12.236-8.15s5.875-4.413 6.432-4.413 1.014-.414 1.014-.921 1.331-1.213 2.959-1.57 5.115-1.674 7.75-2.926c12.444-5.912 20.422-8.031 29.853-7.928 9.399.103 15.438 1.966 15.438 4.763 0 .752.675 1.626 1.5 1.943s1.5 1.49 1.5 2.607.4 2.031.889 2.031 1.184 1.575 1.545 3.5 1.086 3.5 1.611 3.5c1.332 0 1.241 18.738-.093 19.183-.576.192-1.314 2.93-1.64 6.083s-.92 5.734-1.322 5.734-.965 2.081-1.251 4.624-.955 4.906-1.486 5.25-1.275 2.314-1.654 4.376-1.119 3.75-1.644 3.75-.955 1.125-.955 2.5-.393 2.5-.873 2.5-1.094 2.298-1.363 5.107-1.001 5.422-1.626 5.808c-.701.433-1.386 5.935-1.792 14.393-.361 7.531-1.037 13.692-1.502 13.692s-.845 4.275-.845 9.5-.403 9.5-.895 9.5-1.053 12.264-1.25 27.537c-.24 18.648-.712 27.767-1.461 28.25-.608.392-1.351 2.949-1.652 5.681s-1.04 5.132-1.645 5.333S670 346.217 670 347.5s-.562 2.521-1.25 2.751c-.976.326-1.262 11.192-1.304 49.653-.037 33.848-.389 49.449-1.125 49.916-.624.396-1.375 6.839-1.8 15.43-.401 8.113-1.132 14.75-1.625 14.75s-.896 2.475-.896 5.5-.386 5.5-.857 5.5-1.085 13.817-1.364 30.705c-.357 21.636-.842 30.816-1.643 31.083-1.399.466-1.523 5.212-.136 5.212.55 0 1.007 1.913 1.015 4.25s.349 4.774.756 5.414c.735 1.154 14.978 3.609 16.279 2.805.373-.23 4.676-.864 9.564-1.408 14.568-1.623 22.419.37 24.681 6.266.353.92 1.106 1.674 1.674 1.674s1.031.675 1.031 1.5.4 1.5.889 1.5 1.184 1.575 1.545 3.5 1.086 3.5 1.611 3.5.962.563.972 1.25 1.135 2.31 2.5 3.605 2.483 2.758 2.483 3.25.675.895 1.5.895 1.5.675 1.5 1.5.675 1.5 1.5 1.5 1.5.401 1.5.892 1.125 1.174 2.5 1.519 2.5 1.069 2.5 1.608.675.981 1.5.981 1.5.609 1.5 1.354 1.09 2.53 2.422 3.968 2.713 3.528 3.067 4.646 1.065 2.032 1.578 2.032.933 1.198.933 2.662c0 2.752 5.519 12.338 7.104 12.338.493 0 .896.681.896 1.514s.45 2.295 1 3.25 1.439 2.974 1.975 4.486l.976 2.75h35.025H827v67.5V778h-23-23v29 29h-33c-21.333 0-33 .354-33 1 0 .564-2.833 1-6.5 1H702v4.5 4.5h-17-17v8 8h-11-11v-19-19h23c14.667 0 23-.362 23-1 0-.55-.461-1-1.025-1-1.27 0-14.351-8.142-14.809-9.217-.183-.431-.971-.783-1.75-.783s-1.417-.45-1.417-1-.445-1-.989-1c-2.34 0-5.011-3.583-5.011-6.722 0-3.079-.212-3.278-3.5-3.278-2.833 0-3.5-.381-3.5-2 0-1.917.667-2 16-2h16v-23-23h34.5H761v-40.5V670h-60.5H640v52 52h-3.056c-2.167 0-3.913-.937-6-3.223L628 767.554v16.723V801h-18-18v24.5V850h24.5H641v6.5 6.5h-4.5-4.5v16.5V896h8 8v8.5 8.5h-9.5-9.5v14.5V942h-8.5-8.5zM301.95 822.12c.302-.468 1.675-1.195 3.05-1.615s4.3-1.584 6.5-2.586 7.533-3.206 11.851-4.899c10.706-4.199 13.627-7.362 7.899-8.553-6.321-1.314-24.25-11.393-24.25-13.633 0-.459-.649-.834-1.443-.834s-2.031-.806-2.75-1.791-2.743-2.797-4.498-4.026-3.46-3.082-3.788-4.117-1.3-2.151-2.16-2.481c-1.379-.529-1.521.952-1.212 12.575.25 9.391.71 13.294 1.601 13.591.76.253 1.253 2.245 1.259 5.083.005 2.567.298 7.072.651 10.012.64 5.328.652 5.343 3.692 4.735 1.677-.335 3.297-.993 3.599-1.46zm212.344-30.966c-3.187-2.959-7.369-6.566-9.294-8.015s-5.525-4.53-8-6.847c-7.388-6.916-7.911-7.291-10.146-7.291-2.096 0-2.087.054.343 2.307 1.369 1.269 2.793 3.519 3.165 5S491.48 779 492.019 779s.981.482.981 1.071c0 1.104 2.44 3.929 3.394 3.929.965 0 6.606 5.907 6.606 6.917 0 .541.563 1.344 1.25 1.784s2.03 2.487 2.984 4.55 2.191 3.75 2.75 3.75 1.016.914 1.016 2.031.675 2.29 1.5 2.607 1.5 1.165 1.5 1.885 1.237 2.213 2.75 3.317l2.75 2.007.294-8.157.294-8.157zM262 780.15c3.025-.593 7.188-1.34 9.25-1.659 2.349-.364 3.75-1.124 3.75-2.035 0-.8.675-1.455 1.5-1.455s1.5-.441 1.5-.981 1.125-1.263 2.5-1.608c2.885-.724 3.348-3.705.949-6.105-1.641-1.641-8.225-1.262-9.368.539-.32.504-3.845 1.24-7.835 1.637s-7.504 1.126-7.809 1.62-1.654.898-2.996.898c-2.298 0-2.441.329-2.441 5.614 0 6.357-1.282 5.945 11 3.536zM531.777 757h11.714l-7.211-7c-3.966-3.85-7.434-7-7.707-7s-2.271-1.687-4.441-3.75l-6.789-6.416c-1.564-1.466-3.743-3.808-4.843-5.204s-2.494-2.558-3.097-2.584S507.268 724.1 506 723s-2.701-2-3.184-2-3.058-2.25-5.722-5-5.351-5-5.969-5-1.125-.675-1.125-1.5-.675-1.5-1.5-1.5-1.5-.43-1.5-.955-1.575-1.25-3.5-1.611-3.5-1.057-3.5-1.545-.675-.889-1.5-.889-1.5-.675-1.5-1.5-.675-1.5-1.5-1.5-1.5-.45-1.5-1-.675-1-1.5-1-1.5-.626-1.5-1.392-1.125-1.674-2.5-2.019-2.5-1.069-2.5-1.608-.675-.981-1.5-.981-1.5-.401-1.5-.892-1.125-1.174-2.5-1.519-2.5-1.069-2.5-1.608-1.139-.981-2.531-.981-2.79-.675-3.107-1.5-1.652-1.5-2.969-1.5-2.393-.386-2.393-.858-2.787-1.149-6.194-1.505-6.445-1.053-6.751-1.548-7.719-1.056-16.474-1.245c-11.592-.251-16.03-.684-16.333-1.594-.306-.92-4.088-1.25-14.332-1.25-11.704 0-13.917.239-13.917 1.5 0 .825-.627 1.5-1.393 1.5s-1.652.675-1.969 1.5-1.158 1.5-1.87 1.5-2.139 1.125-3.171 2.5c-1.236 1.646-2.854 2.5-4.737 2.5-1.573 0-2.86.42-2.86.933s-1.012 1.253-2.25 1.645c-2.331.738-9.75 8.002-9.75 9.546 0 .482.612.876 1.36.876s2.205 1.125 3.237 2.5 2.423 2.5 3.09 2.5 1.609.708 2.093 1.572 2.756 1.824 5.05 2.132 4.17.95 4.17 1.428 1.762.868 3.917.868 4.087.512 4.296 1.139c.25.751 5.38 1.308 15.083 1.638 8.087.275 14.704.887 14.704 1.361s3.118.862 6.929.862c4.825 0 7.384.455 8.429 1.5.825.825 2.657 1.5 4.071 1.5s2.571.45 2.571 1 .914 1 2.031 1 2.29.675 2.607 1.5 1.17 1.5 1.897 1.5 1.916.563 2.643 1.25 3.009 2.03 5.071 2.984 3.75 2.191 3.75 2.75.675 1.016 1.5 1.016 1.5.675 1.5 1.5c0 .849.896 1.5 2.066 1.5 2.838 0 5.934 1.788 5.934 3.427 0 .746 1.125 1.639 2.5 1.984s2.5 1.069 2.5 1.608 1.098.981 2.441.981 2.719.45 3.059 1 1.506 1 2.59 1 2.216.634 2.513 1.41 1.633 1.684 2.969 2.019 2.428 1.051 2.428 1.59 1.125.981 2.5.981 2.5.401 2.5.892 1.026 1.149 2.279 1.464 3.81 1.938 5.68 3.608S490.954 760 491.68 760s1.32.379 1.32.843 1.688 1.701 3.75 2.75 4.478 2.695 5.367 3.657 1.897 1.75 2.239 1.75c.611 0 3.594 2.291 6.184 4.75.724.688 1.799 1.25 2.388 1.25s1.071.346 1.071.768 1.237 1.52 2.75 2.439l2.75 1.671.282-11.439.282-11.439zM466 764.936c0-1.214-1.125-3.249-2.5-4.524s-2.5-2.721-2.5-3.215-1.411-1.978-3.134-3.298-4.863-4.076-6.975-6.124-4.977-4.01-6.366-4.358-2.525-1.07-2.525-1.602c0-1.319-5.583-6.815-6.923-6.815-.592 0-1.077-.482-1.077-1.071 0-3.495-8.252-7.144-15.267-6.751l-5.767.323 2.517 2.706c1.384 1.488 2.517 3.176 2.517 3.75s.652 1.044 1.449 1.044c1.571 0 6.551 5.963 6.551 7.844 0 .636.464 1.156 1.031 1.156s1.32.753 1.674 1.674c.956 2.492 3.898 5.151 8.147 7.366 2.081 1.085 4.688 2.815 5.793 3.844s2.907 2.157 4.006 2.505 2.999 1.567 4.224 2.708 4.567 3.3 7.426 4.798c5.65 2.959 7.699 2.438 7.699-1.96zm-197.25-2.167c6.868-2.35 8.043-4.472 3.75-6.769-1.375-.736-2.5-1.712-2.5-2.169s-.675-.831-1.5-.831-1.5-.45-1.5-1-.675-1-1.5-1-1.5-.441-1.5-.981-1.125-1.263-2.5-1.608-2.5-1.182-2.5-1.859-1.8-1.826-4-2.552-4-1.698-4-2.16-1.125-.84-2.5-.84c-2.328 0-2.5.339-2.5 4.917 0 2.704.438 5.067.973 5.25s1.279 3.641 1.653 7.683l.68 7.35 6.597-.646c3.628-.355 9.41-1.609 12.847-2.785zM575.158 742.5c-.188-1.1-.75-2.15-1.25-2.333s-.918-1.083-.931-2-.902-2.792-1.978-4.167-1.966-3.31-1.978-4.3c-.025-2.008-6.081-8.7-7.873-8.7-.632 0-1.149-.45-1.149-1s-.852-1-1.893-1-2.152-.675-2.469-1.5-1.667-1.5-3-1.5-2.683-.675-3-1.5-1.265-1.5-2.107-1.5-1.531-.45-1.531-1-.852-1-1.893-1-2.152-.675-2.469-1.5-1.265-1.5-2.107-1.5-1.531-.392-1.531-.871c0-.874-13.831-2.631-14.607-1.856-.227.227.729 1.721 2.125 3.32 4.129 4.728 4.482 5.256 4.482 6.712 0 1.637 3.324 5.695 4.664 5.695s4.878 2.783 10.859 8.544c2.88 2.774 7.091 5.88 9.357 6.902s4.12 2.24 4.12 2.706.643.848 1.429.848 2.023.571 2.75 1.268c2.3 2.207 6.218 3.652 9.321 3.439 2.397-.165 2.931-.608 2.658-2.206zm-38.257-47.148c2.964-2.537 1.653-7.888-3.065-12.512-2.11-2.068-3.837-4.22-3.837-4.782s-1.548-2.616-3.44-4.564-3.723-4.432-4.067-5.518c-.432-1.361-1.517-1.976-3.488-1.976-1.574 0-3.514-.653-4.312-1.451s-2.63-1.747-4.071-2.108-2.621-.995-2.621-1.408c0-1.094-12.895-2.884-24.991-3.47-5.828-.282-10.643-.965-10.833-1.535-.188-.565-2.33-1.027-4.759-1.027-3.509 0-4.417.353-4.417 1.718 0 1.938 4.602 6.282 6.656 6.282.739 0 1.344.675 1.344 1.5 0 .971.974 1.5 2.763 1.5 1.78 0 3.431.89 4.64 2.5 1.033 1.375 2.666 2.5 3.63 2.5s2.012.675 2.329 1.5 1.684 1.5 3.04 1.5c1.564 0 2.69.712 3.083 1.949.34 1.072 1.454 2.214 2.475 2.538s2.109 1.247 2.417 2.051 1.7 1.462 3.092 1.462 2.531.45 2.531 1 1.35 1 3 1 3 .394 3 .875 1.376 1.15 3.058 1.487 3.691 1.18 4.465 1.875c3.345 3.003 4.458 3.763 5.506 3.763.612 0 1.789.675 2.614 1.5s3.268 1.5 5.429 1.5 3.929.45 3.929 1c0 1.547 2.765 1.182 4.902-.648zM337 675c0-.55 1.093-1 2.429-1s3.044-.616 3.797-1.368 2.36-1.683 3.571-2.067 2.203-1.119 2.203-1.632.675-.933 1.5-.933 1.5-.45 1.5-1 .742-1 1.649-1 3.105-1.462 4.885-3.25 4.638-4.37 6.351-5.739 3.115-2.948 3.115-3.509.9-1.582 2-2.269 2-1.718 2-2.292 1.53-2.482 3.4-4.242c4.327-4.072 5.249-7.06 3.16-10.248-1.989-3.036-5.893-3.211-10.06-.451-1.65 1.093-3.542 1.99-4.203 1.993-1.377.008-10.297 8.773-10.297 10.118 0 .489-.675.888-1.5.888s-1.507.337-1.516.75-2.073 3-4.587 5.75-5.717 6.688-7.117 8.75-3.113 3.75-3.806 3.75c-1.618 0-2.474 2.277-2.474 6.582 0 2.752.39 3.418 2 3.418 1.1 0 2-.45 2-1zm61-18.843c0-.464 7.31-1.131 16.244-1.483 9.545-.376 16.384-1.059 16.583-1.657.186-.559 1.615-1.017 3.175-1.017 3.669 0 15.335-2.975 16.041-4.091.299-.472 8.174-.983 17.5-1.134l16.957-.275.303-4.159c.27-3.705-.131-4.589-3.677-8.1-4.158-4.117-4.273-4.16-23.524-8.826-14.221-3.447-18.151-3.021-28.101 3.045-2.2 1.341-6.925 3.689-10.5 5.217s-7.095 3.351-7.821 4.051-2.189 1.273-3.25 1.273-1.929.348-1.929.773-1.549 1.607-3.441 2.626-3.679 2.472-3.969 3.227-1.631 1.374-2.979 1.374c-1.907 0-2.597.662-3.106 2.978-.962 4.378.191 7.022 3.062 7.022 1.338 0 2.433-.38 2.433-.843zm-63.45-42.056c.852-.806 10.805-3.962 19.062-6.044 4.36-1.099 14.22-5.695 18.395-8.575 1.929-1.33 7.104-3.734 11.5-5.342l10.945-4.084c1.624-.638 8.374-1.823 15-2.633s14.073-1.928 16.548-2.486 8.775-1.504 14-2.103c8.315-.954 13.982-2.61 20.23-5.912 3.735-1.974 20.382-7.91 22.27-7.941 1.1-.018 4.454-1.596 7.454-3.507s6-3.474 6.667-3.474 1.363-.337 1.546-.75 3.011-2.1 6.283-3.75 7.073-4.033 8.446-5.296 3.918-2.971 5.656-3.795c4.492-2.132 5.949-5.539 5.949-13.909 0-9.45-1.328-11.822-7.507-13.405-4.051-1.038-6.302-.977-13.671.373-10.021 1.836-18.322 4.317-18.322 5.476 0 .431-2.137 1.071-4.75 1.423-5.665.762-19.25 5.538-19.25 6.767 0 .476-.876.866-1.947.866s-4.063 1.125-6.649 2.5-5.324 2.5-6.084 2.5-1.622.625-1.915 1.388-1.891 1.659-3.551 1.992-7.061 3.308-12.002 6.612-9.403 6.008-9.917 6.008-.934.353-.934.784-1.238 1.521-2.75 2.421-4.325 3.051-6.25 4.78-4.496 3.677-5.714 4.329-5.943 3.726-10.5 6.829-13.634 8.387-20.171 11.74-13.737 7.612-16 9.463C350.978 601.959 341.394 608 339.715 608c-1.989 0-9.596 6.907-7.665 6.958.853.023 1.978-.363 2.5-.857zm11.45-29.15c2.475-1.672 8.539-5.087 13.476-7.588s10.181-5.406 11.654-6.456 3.194-1.907 3.824-1.907c2.717 0 13.994-7.646 18.546-12.575 1.399-1.515 10.172-6.695 15.239-8.999 2.331-1.06 4.244-2.264 4.25-2.677S413.9 544 415 544s2-.441 2-.98 1.688-1.894 3.75-3.01c4.311-2.335 7.529-4.289 8.25-5.01 2.051-2.051 10.366-5.906 14.5-6.722 1.65-.326 3.225-.889 3.5-1.251 1.444-1.903 10.144-7.027 11.93-7.027 1.173 0 2.07-.65 2.07-1.5 0-.825.675-1.5 1.5-1.5s1.5-.348 1.5-.773 1.575-1.621 3.5-2.657 3.5-2.228 3.5-2.648 1.35-1.06 3-1.422 3-1.073 3-1.579.675-.921 1.5-.921 1.5-.42 1.5-.933.992-1.247 2.203-1.632 2.819-1.315 3.571-2.067 2.011-1.368 2.797-1.368 1.429-.914 1.429-2.031.675-2.29 1.5-2.607 1.5-1.202 1.5-1.969.408-1.393.906-1.393 1.216-2.25 1.594-5 1.032-5 1.453-5 1.093-13.163 1.493-29.25 1.138-29.4 1.64-29.583.913-2.546.913-5.25.45-4.917 1-4.917c.564 0 1-2.833 1-6.5s-.436-6.5-1-6.5c-.55 0-1-.599-1-1.331 0-2.249-4.859-4.083-10.466-3.952-10.792.253-32.073 5.219-40.233 9.39-2.09 1.068-5.488 2.214-7.55 2.546s-3.75.966-3.75 1.408-1.012 1.109-2.25 1.481c-5.265 1.582-15.276 5.828-15.583 6.61-.183.467-.77.849-1.304.849s-2.409 1.348-4.167 2.995-3.758 2.997-4.446 3-1.25.657-1.25 1.454c0 1.358-5.856 6.551-7.387 6.551-.905 0-3.076 1.802-6.426 5.332-2.006 2.114-2.849 4.27-3.324 8.5-1.113 9.906-2.76 14.799-8.457 25.122-1.049 1.9-2.444 4.045-3.102 4.767s-2.203 3.105-3.434 5.296-2.547 3.983-2.924 3.983-1.236 2.137-1.909 4.75-1.599 5.65-2.059 6.75-1.598 4.475-2.53 7.5-2.504 6.85-3.492 8.5-2.753 5.475-3.921 8.5-3.228 7.875-4.579 10.777-2.456 5.733-2.456 6.29c0 1.698-3.658 8.26-6.324 11.344-1.384 1.601-4.784 7.248-7.556 12.547-4.441 8.491-5.12 10.61-5.723 17.839l-.684 8.203 3.894-.004c2.679-.003 5.297-.952 8.394-3.044zm-48.194-12.925c6.816-7.223 9.194-10.084 9.194-11.061 0-.476.572-1.225 1.271-1.665s1.821-1.925 2.493-3.3c1.395-2.854 3.278-5.874 4.736-7.596 3.066-3.62 4.431-5.547 8.429-11.904 2.422-3.85 4.967-7.45 5.657-8s2.721-3.835 4.513-7.3 4.652-7.778 6.356-9.584c3.66-3.881 6.001-7.319 9.611-14.116 8.249-15.532 9.662-18.312 10.929-21.5.765-1.925 1.687-3.725 2.049-4 .745-.566 8.738-22.382 11.542-31.5 1.015-3.3 3.259-9.15 4.988-13 4.029-8.972 4.401-10.897 9.366-48.5 5.048-38.225 5.444-80.218.809-85.802-1.192-1.436-3.798-1.272-11.562.729-4.035 1.04-5.084 1.625-8.651 4.823-.767.688-1.825 1.25-2.351 1.25C365.82 300 355 310.316 355 311.617c0 .596-1.413 2.164-3.139 3.483s-6.551 6.45-10.722 11.4c-10.716 12.719-18.73 21.801-25.389 28.771-3.163 3.31-5.75 6.436-5.75 6.947s-1.8 2.544-4 4.519-4 4.144-4 4.82-.675 1.488-1.5 1.805-1.5 1.553-1.5 2.747-.689 2.675-1.531 3.291c-.874.639-2.019 4.117-2.669 8.11-.626 3.845-1.561 7.273-2.078 7.617s-1.175 2.707-1.462 5.25-.877 4.624-1.312 4.624-1.086 1.345-1.447 2.989-1.072 3.245-1.579 3.559-.923 1.444-.923 2.511-.435 1.941-.966 1.941-1.264 2.25-1.629 5-1.05 5-1.523 5-1.147 1.8-1.499 4-1.032 4-1.512 4-.872 1.313-.872 2.917-.535 3.095-1.188 3.313c-.836.279-1.317 5.709-1.624 18.333-.24 9.866-.807 18.174-1.259 18.464s-1.136 4.677-1.519 9.75-1.082 9.224-1.553 9.224-.857 7.425-.857 16.5.387 16.5.86 16.5 1.126 2.58 1.452 5.734 1.063 5.891 1.64 6.083 1.048 1.901 1.048 3.797c0 2.142.568 3.666 1.5 4.024.825.317 1.5 1.427 1.5 2.469s.45 1.893 1 1.893 1 .868 1 1.929.599 2.528 1.331 3.26 1.641 2.564 2.019 4.071 1.129 2.74 1.669 2.74.981.834.981 1.854 1.058 2.996 2.351 4.391 2.629 3.261 2.969 4.146.882 1.609 1.205 1.609 2.7-2.238 5.281-4.974zM514.362 494.5c.317-.825 1.217-1.5 2-1.5s1.698-.712 2.031-1.582c.931-2.427.722-14.899-.401-23.866L516.4 453.59c-.397-4.019-.869-5.459-1.476-4.5-.491.776-.9 2.61-.908 4.077s-.578 2.853-1.265 3.082c-.89.296-1.347 4.135-1.587 13.328-.185 7.102-.643 13.14-1.017 13.418-.773.574-3.147 9.265-3.147 11.52 0 2.049 6.575 2.036 7.362-.014zM413.5 396c3.137-1.65 6.457-3 7.379-3s2.612-.656 3.756-1.457c2.786-1.951 15.949-5.541 20.345-5.549 1.936-.003 4.87-.711 6.52-1.573s6.375-2.398 10.5-3.413c9.926-2.444 17-4.983 17-6.102 0-.498.652-.906 1.448-.906 1.979 0 6.117-4.002 6.98-6.75.389-1.238 1.067-2.25 1.508-2.25s1.016-4.814 1.277-10.698c.303-6.817.895-10.838 1.631-11.083.635-.212 1.155-1.473 1.155-2.802s.4-2.417.889-2.417 1.178-1.542 1.532-3.427 1.08-3.573 1.615-3.751c1.472-.491 1.751-26.712.294-27.615-.644-.399-1.48-1.959-1.858-3.466s-1.089-2.74-1.579-2.74-.892-.675-.892-1.5-.675-1.5-1.5-1.5-1.5-.45-1.5-1-1.899-1-4.221-1c-5.999 0-14.779 2.214-14.779 3.727 0 .7-.643 1.273-1.429 1.273s-2.03.563-2.765 1.25-3.017 2.108-5.071 3.157-3.735 2.287-3.735 2.75-1.125.843-2.5.843-2.505.563-2.511 1.25-1.806 2.11-4 3.161-3.989 2.253-3.989 2.671-1.35 1.056-3 1.419-3 1.073-3 1.579-.564.921-1.254.921-4.852 2.69-9.25 5.977-8.386 5.987-8.864 6-2.406 1.373-4.285 3.023-3.785 3-4.234 3-1.11 3.799-1.467 8.442-1.546 13.755-2.642 20.25c-2.23 13.21-2.563 25.202-.885 31.865.615 2.444 1.245 4.443 1.398 4.443s2.846-1.35 5.983-3zm93.579-25.627c.868-.755 2.047-1.373 2.619-1.373s1.319-1.687 1.66-3.75c1.219-7.376.481-17.25-1.29-17.25-1.003 0-4.069 6.725-4.069 8.927 0 1.022-.675 2.118-1.5 2.435-.877.336-1.5 1.835-1.5 3.607 0 1.667-.45 3.031-1 3.031s-1 .627-1 1.393-.675 1.652-1.5 1.969-1.5 1.285-1.5 2.152c0 1.275.718 1.448 3.75.905 2.063-.37 4.46-1.29 5.329-2.045zM410 315c0-.55.64-1 1.423-1s2.773-1.35 4.423-3 3.485-3 4.077-3 1.077-.441 1.077-.981 1.125-1.263 2.5-1.608 2.5-1.254 2.5-2.019.675-1.392 1.5-1.392 1.5-.45 1.5-1 .852-1 1.893-1 2.152-.675 2.469-1.5 1.265-1.5 2.107-1.5 1.531-.675 1.531-1.5.585-1.5 1.301-1.5c2.296 0 6.683-2.459 6.692-3.75.004-.687.795-1.271 1.758-1.296s2.65-1.185 3.75-2.577c3.975-5.03 9.878-10.376 11.458-10.376.573 0 1.042-.675 1.042-1.5s.675-1.5 1.5-1.5 1.5-.675 1.5-1.5.482-1.5 1.071-1.5c1.525 0 3.547-2.222 4.364-4.797.385-1.212 1.119-2.203 1.632-2.203s.933-.9.933-2 .4-2 .889-2 1.184-1.575 1.545-3.5 1.035-3.5 1.498-3.5 1.145-2.025 1.516-4.5 1.097-4.5 1.614-4.5.939-1.575.939-3.5.45-3.5 1-3.5 1-1.35 1-3-.45-3-1-3-1-1.125-1-2.5-.441-2.5-.981-2.5-1.263-1.125-1.608-2.5-1.029-2.5-1.519-2.5-.892-.675-.892-1.5c0-1.152-1.278-1.5-5.5-1.5-3.025 0-5.5.414-5.5.921s-1.35 1.217-3 1.579-3 1.043-3 1.512-.855 1.125-1.901 1.456-4.17 2.837-6.944 5.567-5.518 4.964-6.099 4.964-1.056.675-1.056 1.5-.696 1.5-1.548 1.5-2.59 1.125-3.865 2.5-2.828 2.5-3.452 2.5-1.135.353-1.135.785c0 1.186-4.64 6.541-13.25 15.29-4.262 4.332-7.75 8.562-7.75 9.4s-.585 1.525-1.299 1.525-1.81 1.462-2.433 3.25c-1.323 3.789-2.848 39.346-1.826 42.566.696 2.193 2.558 3.055 2.558 1.184zm-87.591-15.43c2.15-2.971 4.962-5.966 6.25-6.655s2.341-1.646 2.341-2.126.9-1.839 2-3.02 2.008-2.849 2.017-3.708 1.139-2.625 2.51-3.926c2.891-2.742 2.478-1.245 7.01-25.423 2.515-13.416 3.236-19.277 2.523-20.5-.601-1.031-1.01-1.203-1.029-.431-.017.705-.784 1.57-1.704 1.924-3.754 1.441-10.326 11.283-10.326 15.464 0 1.029-1.055 3.549-2.344 5.601-4.485 7.137-9.635 21.201-11.529 31.484-.583 3.164-1.473 6.539-1.977 7.5s-1.234 3.66-1.622 5.999c-.928 5.601.681 5.004 5.881-2.182zM496 275.019c0-.54 1.125-1.263 2.5-1.608s2.5-1.048 2.5-1.561c0-.915.942-2.23 4.046-5.647 2.364-2.604 3.954-6.926 3.954-10.749 0-1.899.45-3.453 1-3.453s1-1.35 1-3-.414-3-.921-3-1.239-1.448-1.627-3.217c-.894-4.069-2.571-6.783-4.193-6.783-.693 0-1.259.675-1.259 1.5s-.45 1.5-1 1.5-1 1.537-1 3.417-.479 3.576-1.065 3.772-1.32 2.258-1.632 4.583-.942 4.228-1.401 4.228-1.132 2.25-1.497 5-1.055 5-1.534 5-.871.637-.871 1.417-.461 1.57-1.024 1.758-1.297 2.025-1.631 4.083c-.593 3.655-.535 3.742 2.524 3.742 1.722 0 3.131-.441 3.131-.981zm-134.24-14.126c.957-1.159 3.09-3.569 4.74-5.357 4.383-4.749 5.721-6.617 8.479-11.841 1.364-2.582 2.789-4.695 3.168-4.695s1.719-1.687 2.978-3.75 2.646-3.9 3.082-4.083.793-.971.793-1.75.34-1.417.756-1.417 1.345-1.463 2.065-3.25 1.692-3.97 2.158-4.849c1.139-2.146 1.499-19.158.538-25.401-1.291-8.385-4.112-9.742-8.841-4.25-5.159 5.991-8.677 11.013-8.677 12.388 0 .749-.45 1.363-1 1.363s-1 .681-1 1.514-.439 2.295-.975 3.25c-3.567 6.354-8.06 20.071-10.886 33.236-3.073 14.317-3.544 19.128-1.971 20.125 1.994 1.264 2.684 1.079 4.592-1.232zm46.908-36.341c6.785-6.634 7.967-7.553 9.718-7.553.808 0 2.355-1.125 3.436-2.5s2.464-2.5 3.073-2.5 1.106-.675 1.106-1.5.675-1.5 1.5-1.5 1.5-.637 1.5-1.417.523-1.591 1.161-1.804c2.237-.746 5.019-45.999 2.955-48.064-.614-.614-1.116-2.119-1.116-3.344 0-2.653-2.461-5.371-4.863-5.371-4.412 0-13.301 12.911-14.63 21.25-.329 2.063-.941 3.75-1.359 3.75-.826 0-4.428 13.831-6.12 23.5-.578 3.3-1.495 6.15-2.039 6.333s-.989 2.433-.989 5-.9 7.034-2 9.927c-3.213 8.453-2.412 13.013 2 11.394.825-.303 3.825-2.824 6.667-5.603zM771 925.5V912h10 10v6.5 6.5h-4.5-4.5v7 7h-5.5-5.5zM745 908v-4h-4-4v-8-8h-13.5H710v-15.5V857h3 3v14.5V886h24.5H765v13 13h-10-10zm-61-2v-4h-6-6v-11-11h15.5H703v7c0 6.333.19 7 2 7 1.819 0 2 .667 2 7.375v7.375l-3.125.625c-1.719.344-6.894.625-11.5.625H684zm222-33.5V867h7 7v-15-15h17.5H955v20.5V878h-24.5H906zm-71-50V798h26.5H888v12.5V823h-9.5-9.5v12 12h-17-17z"/></svg>