<svg width="210mm" height="297mm" viewBox="0 0 210 297" xmlns="http://www.w3.org/2000/svg"><defs><path id="e" d="M139.477 34.869h63.033v311.14h-63.033z"/><path id="d" d="M156.911 75.103h52.304v489.51h-52.304z"/><path id="c" d="M156.911 76.444h46.939v482.804h-46.939z"/><path id="b" d="M130.089 195.804h266.883v704.089H130.089z"/><path id="a" d="M225.309 112.654h324.552v890.505H225.309z"/></defs><text xml:space="preserve" transform="scale(.26458)" style="font-size:159.192px;font-family:HannariMincho;-inkscape-font-specification:'HannariMincho, Normal';writing-mode:tb-rl;white-space:pre;shape-inside:url(#b);display:inline;fill:#000;fill-opacity:1;stroke:#000;stroke-width:0"><tspan x="-99.495" y="0"><tspan dy="0 96.788704 85.167686 98.062164 47.757477 89.625061 93.604767 75.775391 98.062134 47.757507 49.667908 88.829224 75.775391 95.515259 98.380615 98.380737 98.380615 98.380615">uchikoshifes 2023
</tspan></tspan></text><g style="fill:#000;fill-opacity:1"><g aria-label="雲外蒼天" style="font-size:62.9231px;font-family:'Noto Serif JP';-inkscape-font-specification:'Noto Serif JP, Normal';writing-mode:tb-rl;fill:#fff;fill-opacity:1;stroke:#000;stroke-width:0" stroke="none"><path d="M130.143 60.528H82.447l.504 1.888h18.562c-1.258 2.831-3.02 6.23-4.656 8.809-4.782.126-8.747.189-11.515.189l3.209 5.977c.566-.125 1.258-.566 1.636-1.32 16.423-1.7 28-3.021 36.37-4.28 2.013 1.888 3.712 3.902 4.719 5.79 5.789 2.705 7.299-9.25-13.34-13.466l-.566.692a50.954 50.954 0 0 1 7.613 5.6c-9.312.315-18.184.566-25.484.755 2.706-2.391 5.79-5.663 8.306-8.746h29.574c.881 0 1.447-.315 1.636-1.007-2.202-2.014-5.726-4.53-5.726-4.53zm-40.46-13.403h14.787c.881 0 1.448-.314 1.636-1.006-1.824-1.51-4.53-3.524-4.53-3.524l-2.328 2.706H89.18Zm9.376-8.683h-8.243l.503 1.762h12.9c.818 0 1.384-.315 1.573-1.007-1.762-1.51-4.468-3.46-4.468-3.46zm-9.69 16.36h42.347c.755 0 1.384-.315 1.573-1.007-2.076-1.887-5.537-4.278-5.537-4.278l-2.957 3.46H88.803Zm26.239-7.677h14.913c.818 0 1.447-.314 1.636-1.006-1.888-1.573-4.783-3.65-4.783-3.65l-2.517 2.832h-9.753zm7.676-8.683h-8.117l.504 1.762h12.899c.88 0 1.447-.315 1.573-1.007-1.762-1.51-4.468-3.524-4.468-3.524zm11.452-10.256-2.831 2.957h-19.003v-5.537h19.884c.88 0 1.51-.315 1.699-1.007-2.266-2.014-5.915-4.72-5.915-4.72l-3.146 3.902H87.796l.566 1.825h19.506v5.537h-18.31c-.19-.881-.44-1.825-.755-2.769l-1.007.063c.314 3.587-1.7 6.859-4.027 8.117-1.385.755-2.391 2.077-1.888 3.65.692 1.699 3.083 1.825 4.72.818 1.887-1.259 3.523-4.027 3.208-8.117h18.06v17.681h.817c2.58 0 4.216-1.007 4.216-1.321v-16.36h19.255a75.508 75.508 0 0 1-1.951 6.858l.818.44c2.14-1.635 4.908-4.404 6.544-6.417 1.133-.063 1.825-.189 2.265-.692zM109.882 94.747l-2.895 3.146h-8.935c.881-2.328 1.636-4.72 2.328-7.236 1.385-.063 2.077-.63 2.329-1.448l-7.551-1.887c-2.328 13.717-7.74 26.113-14.095 34.041l.88.63c3.713-3.02 7.048-6.86 9.943-11.39 2.454 2.58 4.908 5.852 5.663 8.684 4.782 3.335 8.494-5.79-4.72-10.32 1.7-2.831 3.21-5.977 4.531-9.312h9.942c-2.706 17.996-9.942 34.545-25.924 44.423l.692.818c20.387-9.312 27.371-26.301 30.643-44.36 1.385-.126 2.014-.315 2.517-.944zm16.234-4.279c1.573-.252 2.013-.881 2.202-1.762l-7.362-.818v24.037a37.708 37.708 0 0 1-6.292-9.69l-.944.44c1.762 5.663 4.153 10.508 7.236 14.598v27.686h1.007c1.95 0 4.153-1.132 4.153-1.699v-20.45c3.02 2.706 6.544 4.846 10.508 6.482.63-2.454 2.265-4.09 4.279-4.531l.126-.692c-5.412-1.384-10.508-3.901-14.913-7.3zM97.36 162.252v5.285h.755c2.202 0 4.153-.692 4.153-1.195v-4.09h16.045v5.034h.881c2.454-.063 4.153-.756 4.153-1.259v-3.775h14.41c.88 0 1.51-.315 1.636-1.007-2.077-2.014-5.726-4.845-5.726-4.845l-3.146 3.964h-7.174v-4.216c1.636-.252 2.14-.818 2.266-1.699l-7.3-.692v6.607h-16.045v-4.216c1.573-.252 2.14-.818 2.202-1.699l-7.11-.692v6.607H81.63l.44 1.888zm24.918 19.569v4.027H98.304v-4.027zm-24.226 10.005c.189-1.448.252-2.769.252-4.09h23.974v4.09zm26.05 7.676v7.11h-23.281v-7.11zm-16.485-36.055c-3.335 6.23-15.668 14.598-26.428 18.5l.314.88a80.397 80.397 0 0 0 12.208-4.278l-.252.818v7.802c0 7.866-1.447 16.486-10.445 23.47l.692.819c6.48-3.21 10.13-7.362 12.144-11.641v12.081h.755c1.95 0 4.216-1.133 4.216-1.51v-1.95h23.281v3.334h.818c1.51 0 4.027-.944 4.09-1.384v-10.32c1.007-.188 1.762-.629 2.14-1.07l-5.16-3.775-2.391 2.454h-22.4l-3.965-1.636c.252-.755.378-1.573.567-2.328h24.477v1.322h.755c1.636 0 3.964-1.07 4.027-1.51v-11.138c.944-.189 1.762-.63 2.076-1.07l-5.034-3.712-2.39 2.391H99.184l-4.594-1.825c7.237-3.209 13.718-7.236 17.493-11.011 4.782 6.103 14.284 11.389 24.163 14.157.314-1.824 1.95-3.775 4.09-4.278l.062-1.007c-10.004-1.573-21.268-4.971-27.245-9.564 1.762-.19 2.517-.44 2.643-1.196zm-5.978 11.452.503 1.825h16.486c.881 0 1.384-.315 1.51-1.007-1.636-1.573-4.341-3.398-4.341-3.398l-2.266 2.58zM135.24 247.312c.88 0 1.51-.314 1.699-1.007-2.454-2.139-6.418-5.222-6.418-5.222l-3.524 4.342h-15.542c.566-5.034.692-10.509.818-16.423h24.98c.881 0 1.51-.315 1.7-1.007-2.455-2.202-6.545-5.286-6.545-5.286l-3.523 4.468H82.51l.44 1.825h23.66c-.063 5.914-.063 11.326-.63 16.423H84.65l.566 1.887h20.513c-1.7 12.333-7.048 22.275-24.226 30.266l.693 1.07c20.701-7.362 26.994-17.681 29.007-31.336h.504c1.824 10.886 6.858 23.722 23.281 31.588.503-2.769 2.202-3.965 4.845-4.342l.126-.692c-17.87-6.481-24.792-16.612-27.12-26.554z" style="letter-spacing:3.95266px;fill:#fff;fill-opacity:1" transform="translate(7.821 -.88)"/></g><g aria-label="uchikoshifes 2022" style="font-size:12.3472px;font-family:'Noto Serif JP';-inkscape-font-specification:'Noto Serif JP, Normal';letter-spacing:1.32292px;writing-mode:tb-rl;fill:#fff;fill-opacity:1;stroke:#000;stroke-width:0" stroke="none"><path d="M53.348 27.467h3.901l1.914.037.136-.123-.21-1.951h-.407l-.186.963-4.111-.037c-.593-.593-.89-1.235-.89-1.89 0-.74.42-1.123 1.63-1.123h2.124l1.914.062.136-.136-.198-1.988h-.395l-.197.976-3.445-.037c-1.803-.013-2.445.666-2.445 1.765 0 .852.432 1.717 1.284 2.408l-1.222.123.11 1.877h.408zM54.397 35.951c-.642-.432-1.025-1.11-1.025-1.889 0-1.296.988-2.235 2.729-2.235 1.753 0 2.766.84 2.766 2.075 0 .21-.037.469-.124.728l-.95.26c-.383.074-.63.284-.63.716 0 .32.16.518.494.592 1-.185 1.728-1.173 1.728-2.37 0-1.642-1.271-3.161-3.407-3.161-2.062 0-3.359 1.222-3.359 3.05 0 1.259.605 2.111 1.655 2.506zM53.36 44.67c.679-.012 1.617-.024 2.272-.024h1.284c1.766 0 2.47-.593 2.47-1.741 0-.877-.507-1.79-1.272-2.47h2.654l1.926.037.1-.173-.569-2.05h-.407l-.099 1.1h-6.087c-.63 0-1.58-.013-2.272-.025l-.148-1.012h-.42v3.111h.42l.148-.938a147.28 147.28 0 0 1 2.272-.025h2c.68.74.901 1.321.901 1.938 0 .766-.395 1.136-1.642 1.136h-1.26c-.654 0-1.592-.012-2.271-.024l-.148-1.013h-.42v3.112h.42zM60.929 49.426c0 .469.358.864.84.864.493 0 .827-.395.827-.864 0-.494-.334-.877-.828-.877-.481 0-.84.383-.84.877zm-7.57.592c.692-.012 1.643-.024 2.273-.024h1.815l1.803.024.123-.185-.728-2.074h-.408l-.099 1.099c-.592.025-1.037.037-1.79.037h-.716c-.63 0-1.58-.012-2.272-.025l-.148-1.037h-.42v3.112h.42zM53.335 59.28l3.68-2.284 1.568 1.556.173 1.26h.444V56.7h-.444l-.223 1.062-2.518-2.445h4.753l1.926.062.1-.185-.569-2.087h-.407l-.099 1.099h-6.087c-.729 0-1.531-.012-2.272-.025l-.148-1.062h-.42v3.285h.42l.148-1.062c.63-.012 1.321-.025 1.963-.025l.914.902-3.445 2.099v1.84h.42zM52.62 64.937c0 1.58 1.123 3.112 3.358 3.112 2.247 0 3.407-1.543 3.407-3.112 0-1.58-1.173-3.099-3.407-3.099-2.223 0-3.359 1.507-3.359 3.1zm.518 0c0-1.185.975-1.864 2.84-1.864 1.876 0 2.889.68 2.889 1.864 0 1.173-1.013 1.865-2.89 1.865-1.864 0-2.84-.692-2.84-1.865zM56.669 73.002c.333-.914.593-1.26 1.198-1.26.592 0 .987.457.987 1.322 0 .333-.086.654-.247.975l-1.148.26v.604l1.37.05c.359-.593.556-1.16.556-1.89 0-1.518-.889-2.358-1.889-2.358-.926 0-1.457.655-1.827 1.655l-.21.63c-.333.889-.642 1.259-1.235 1.259-.642 0-1.086-.494-1.086-1.556 0-.432.074-.79.222-1.111l1.247-.296v-.642l-1.482.024c-.333.667-.506 1.26-.506 2.038 0 1.716.89 2.617 1.926 2.617.852 0 1.482-.518 1.951-1.852zM53.36 83.807c.679-.012 1.617-.024 2.272-.024h1.284c1.766 0 2.47-.593 2.47-1.741 0-.877-.507-1.79-1.272-2.47h2.654l1.926.037.1-.172-.569-2.05h-.407l-.099 1.099h-6.087c-.63 0-1.58-.013-2.272-.025l-.148-1.012h-.42v3.111h.42l.148-.938a147.28 147.28 0 0 1 2.272-.025h2c.68.74.901 1.321.901 1.939 0 .765-.395 1.136-1.642 1.136h-1.26c-.654 0-1.592-.013-2.271-.025l-.148-1.013h-.42v3.112h.42zM60.929 88.563c0 .47.358.864.84.864.493 0 .827-.395.827-.864 0-.494-.334-.877-.828-.877-.481 0-.84.383-.84.877zm-7.57.593a147.28 147.28 0 0 1 2.273-.025h1.815l1.803.025.123-.186-.728-2.074h-.408l-.099 1.099c-.592.025-1.037.037-1.79.037h-.716c-.63 0-1.58-.012-2.272-.025l-.148-1.037h-.42v3.112h.42zM59.089 92.33h-.482v1.137h-2.975c-.766 0-1.507-.013-2.272-.037l-.148-1.087h-.42v3.494h.42l.16-1.235c.753-.012 1.507-.024 2.26-.024h2.975v1.852h.593v-1.877c1.383-.05 2.173.16 2.68.457.21.123.382.296.506.494l-.321.37c-.297.309-.445.605-.445.963 0 .457.26.741.593.766.506-.136.716-.655.716-1.284 0-.618-.198-1.297-.827-1.877-.605-.58-1.42-.852-2.865-.975zM56.57 99.605c1.605.136 2.297 1.012 2.297 1.84 0 .876-.729 1.494-1.568 1.494-.445 0-.754-.136-.754-.729zm-.518 4.334c.185.061.444.099.753.099 1.593 0 2.58-1.075 2.58-2.532 0-1.667-1.346-3.099-3.432-3.099-2.112 0-3.334 1.235-3.334 3.05 0 1.198.593 2.062 1.543 2.556l.186-.272c-.58-.481-.976-1.012-.976-1.901 0-1.321.902-2.223 2.692-2.247zM56.669 109.015c.333-.914.593-1.26 1.198-1.26.592 0 .987.458.987 1.322 0 .333-.086.654-.247.975l-1.148.26v.605l1.37.05c.359-.594.556-1.162.556-1.89 0-1.519-.889-2.358-1.889-2.358-.926 0-1.457.654-1.827 1.654l-.21.63c-.333.889-.642 1.26-1.235 1.26-.642 0-1.086-.495-1.086-1.556 0-.433.074-.79.222-1.112l1.247-.296v-.642l-1.482.025c-.333.666-.506 1.259-.506 2.037 0 1.716.89 2.617 1.926 2.617.852 0 1.482-.518 1.951-1.852zM53.841 119.218c.58.617 1.136 1.197 1.507 1.58 1.963 2.074 2.889 2.704 4.05 2.704 1.358 0 2.309-.778 2.309-2.519 0-1.346-.667-2.531-2.05-2.716a.72.72 0 0 0-.407.654c0 .346.234.58.851.741l.988.272c.062.271.087.53.087.728 0 1.013-.729 1.655-1.84 1.655-1.087 0-2.136-.568-3.568-1.939-.618-.592-1.396-1.309-2.136-2.05h-.84v5.557h1.05zM57.15 127.529c3.186 0 4.026.778 4.026 1.642 0 .827-.852 1.605-4.026 1.605-3.173 0-4.012-.778-4.012-1.605 0-.864.84-1.642 4.012-1.642zm4.557 1.642c0-1.457-1.235-2.84-4.557-2.84-3.333 0-4.53 1.383-4.53 2.84 0 1.42 1.197 2.815 4.53 2.815 3.322 0 4.557-1.395 4.557-2.815zM53.841 135.42c.58.618 1.136 1.198 1.507 1.581 1.963 2.074 2.889 2.704 4.05 2.704 1.358 0 2.309-.778 2.309-2.519 0-1.346-.667-2.53-2.05-2.716a.72.72 0 0 0-.407.654c0 .346.234.58.851.741l.988.272c.062.271.087.53.087.728 0 1.013-.729 1.655-1.84 1.655-1.087 0-2.136-.568-3.568-1.939-.618-.592-1.396-1.309-2.136-2.05h-.84v5.557h1.05zM53.841 143.522c.58.617 1.136 1.198 1.507 1.58 1.963 2.075 2.889 2.705 4.05 2.705 1.358 0 2.309-.778 2.309-2.52 0-1.345-.667-2.53-2.05-2.716a.72.72 0 0 0-.407.655c0 .346.234.58.851.74l.988.272c.062.272.087.531.087.729 0 1.012-.729 1.654-1.84 1.654-1.087 0-2.136-.568-3.568-1.938-.618-.593-1.396-1.31-2.136-2.05h-.84v5.556h1.05z" style="fill:#fff;fill-opacity:1" transform="translate(7.821 .911)"/></g><g style="font-size:12.3472px;font-family:'Noto Serif JP';-inkscape-font-specification:'Noto Serif JP, Normal';letter-spacing:1.32292px;writing-mode:tb-rl;fill:#fff;fill-opacity:1;stroke:#000;stroke-width:0"><text xml:space="preserve" transform="matrix(.26458 0 0 .26458 0 0)" style="font-size:46.6667px;font-family:'Noto Serif JP';-inkscape-font-specification:'Noto Serif JP, Normal';writing-mode:tb-rl;white-space:pre;shape-inside:url(#c);display:inline;fill:#fff;fill-opacity:1;stroke:#000;stroke-width:0" aria-label="uchikoshifes 2022"><tspan x="-29.167" y="0"><tspan dy="0 26.040045 26.040045 26.040049 26.040041 26.040041 26.040056">aaaaaa
</tspan></tspan></text></g><g aria-label="9.18 ~ 19" style="font-size:12.3472px;font-family:'Noto Serif JP';-inkscape-font-specification:'Noto Serif JP, Normal';writing-mode:tb-rl;fill:#fff;fill-opacity:1;stroke:#000;stroke-width:0" stroke="none"><path d="M38.305 22.88c0-1.037.679-1.84 2.148-1.84 1.47 0 2.222.754 2.222 1.655 0 1-.975 1.691-3.173 1.691-.222 0-.432-.012-.642-.024-.383-.42-.555-.902-.555-1.482zm-4.581-2.247c.827 3.47 3.185 4.939 5.877 4.939 2.198 0 3.605-1.074 3.605-2.828 0-1.679-1.148-2.864-2.889-2.864-1.691 0-2.729 1.173-2.729 2.617 0 .729.235 1.334.68 1.803-1.964-.321-3.334-1.445-4.124-3.766zM33.798 28.263c0 .52.42.927.901.927a.928.928 0 0 0 .939-.927.925.925 0 0 0-.939-.913.917.917 0 0 0-.901.913zM34.662 34.4c.716-.012 1.445-.025 2.16-.025h4.248l1.951.05.136-.185-.729-2.779h-.469l.173 1.803h-5.31c-.715 0-1.444-.012-2.16-.025l-.272-1.926h-.42v4.989h.42zM34.304 40.5c0-1.038.74-1.741 1.84-1.741.95 0 1.506.42 2.062 1.308-.741 1.593-1.358 2.075-2.198 2.075-1.013 0-1.704-.655-1.704-1.642zm6.902-1.507c.901 0 1.47.692 1.47 1.482 0 .877-.741 1.383-1.556 1.383-.902 0-1.482-.284-2.1-1.087.692-1.42 1.42-1.778 2.186-1.778zm-2.383 2.198c.716 1.26 1.556 1.63 2.272 1.63 1.222 0 2.111-.89 2.111-2.321 0-1.408-.864-2.532-2.247-2.532-1.05 0-1.889.494-2.543 1.68-.618-1.297-1.359-1.964-2.396-1.964-1.432 0-2.222 1.124-2.222 2.779 0 1.592.975 2.765 2.395 2.765 1.21 0 1.951-.642 2.63-2.037zM38.86 50.847c.482-.531.753-.964.753-1.556 0-.963-.642-1.519-1.827-1.593l-.099.593c.963.123 1.284.481 1.284.926 0 .395-.173.74-.58 1.185-.47.543-.74.95-.74 1.556 0 .975.641 1.506 1.839 1.58l.086-.58c-.963-.124-1.284-.494-1.284-.926 0-.408.198-.766.568-1.185zM34.662 61.453c.716-.013 1.445-.025 2.16-.025h4.248l1.951.05.136-.186-.729-2.778h-.469l.173 1.803h-5.31c-.715 0-1.444-.013-2.16-.025l-.272-1.926h-.42v4.988h.42zM38.305 67.552c0-1.037.679-1.84 2.148-1.84 1.47 0 2.222.754 2.222 1.655 0 1-.975 1.692-3.173 1.692-.222 0-.432-.013-.642-.025-.383-.42-.555-.901-.555-1.482zm-4.581-2.247c.827 3.47 3.185 4.939 5.877 4.939 2.198 0 3.605-1.074 3.605-2.828 0-1.679-1.148-2.864-2.889-2.864-1.691 0-2.729 1.173-2.729 2.618 0 .728.235 1.333.68 1.802-1.964-.32-3.334-1.444-4.124-3.766z" style="fill:#fff;fill-opacity:1" transform="translate(7.821 2.313)"/></g></g></svg>