<?xml version="1.0" encoding="UTF-8" standalone="no"?>
<!-- Created with Inkscape (http://www.inkscape.org/) -->

<svg
   width="210mm"
   height="297mm"
   viewBox="0 0 210 297"
   version="1.1"
   id="svg5"
   xmlns="http://www.w3.org/2000/svg"
   xmlns:svg="http://www.w3.org/2000/svg">
  <defs
     id="defs2">
    <rect
       x="130.0889"
       y="195.80391"
       width="266.88341"
       height="704.08941"
       id="rect406" />
    <rect
       x="225.30861"
       y="112.65431"
       width="324.55169"
       height="890.50546"
       id="rect186" />
  </defs>
  <g
     id="layer1">
    <text
       xml:space="preserve"
       transform="scale(0.26458333)"
       id="text184"
       style="font-size:159.192px;font-family:HannariMincho;-inkscape-font-specification:'HannariMincho, Normal';writing-mode:tb-rl;white-space:pre;shape-inside:url(#rect186);display:inline;fill:#000000;fill-opacity:1;stroke:#000000;stroke-width:0" />
    <text
       xml:space="preserve"
       transform="scale(0.26458333)"
       id="text404"
       style="font-size:159.192px;font-family:HannariMincho;-inkscape-font-specification:'HannariMincho, Normal';writing-mode:tb-rl;white-space:pre;shape-inside:url(#rect406);display:inline;fill:#000000;fill-opacity:1;stroke:#000000;stroke-width:0"><tspan
         x="-99.495001"
         y="0"
         id="tspan9611"><tspan
           dy="0 96.788704 85.167686 98.062164 47.757477 89.625061 93.604767 75.775391 98.062134 47.757507 49.667908 88.829224 75.775391 95.515259 98.380615 98.380737 98.380615 98.380615"
           id="tspan9609">uchikoshifes 2023
</tspan></tspan></text>
    <g
       id="g987"
       transform="translate(7.8212803,-0.88074231)"
       style="fill:#000000;fill-opacity:1">
      <g
         id="g5393"
         style="fill:#ffffff;fill-opacity:1">
        <g
           aria-label="雲外蒼天
"
           id="text192"
           style="font-size:62.9231px;font-family:'Noto Serif JP';-inkscape-font-specification:'Noto Serif JP, Normal';writing-mode:tb-rl;stroke:#000000;stroke-width:0">
          <path
             d="M 130.143,60.528056 H 82.447288 l 0.503385,1.887693 h 18.562317 c -1.25846,2.83154 -3.020312,6.229387 -4.656312,8.809234 -4.782156,0.125847 -8.746311,0.18877 -11.514927,0.18877 l 3.209078,5.977694 c 0.566308,-0.125846 1.258462,-0.566308 1.636,-1.321385 16.422931,-1.698924 28.000781,-3.020309 36.369551,-4.278771 2.01354,1.887693 3.71246,3.901232 4.71923,5.788925 5.78893,2.705694 7.29908,-9.249695 -13.33969,-13.465543 l -0.56631,0.692154 c 2.32815,1.384308 5.15969,3.397848 7.61369,5.600156 -9.31262,0.314616 -18.18477,0.566308 -25.483852,0.755077 2.705692,-2.391078 5.788922,-5.663079 8.305852,-8.746311 h 29.57385 c 0.88093,0 1.44724,-0.314615 1.636,-1.006769 -2.2023,-2.013539 -5.726,-4.530463 -5.726,-4.530463 z M 89.683445,47.125436 h 14.786925 c 0.88093,0 1.44723,-0.314615 1.636,-1.006769 -1.82477,-1.510155 -4.53046,-3.523694 -4.53046,-3.523694 l -2.328154,2.705693 H 89.18006 Z m 9.375541,-8.683388 H 90.81606 l 0.503385,1.761847 h 12.899235 c 0.818,0 1.38431,-0.314615 1.57308,-1.006769 -1.76185,-1.510155 -4.46754,-3.460771 -4.46754,-3.460771 z m -9.690157,16.360006 h 42.347251 c 0.75507,0 1.3843,-0.314615 1.57307,-1.006769 -2.07646,-1.887693 -5.53723,-4.278771 -5.53723,-4.278771 l -2.95739,3.46077 H 88.802521 Z m 26.238931,-7.676618 h 14.91278 c 0.818,0 1.44723,-0.314615 1.636,-1.006769 -1.8877,-1.573078 -4.78216,-3.64954 -4.78216,-3.64954 l -2.51692,2.831539 h -9.75308 z m 7.67662,-8.683388 h -8.11708 l 0.50338,1.761847 h 12.89924 c 0.88092,0 1.44723,-0.314615 1.57308,-1.006769 -1.76185,-1.510155 -4.46754,-3.523694 -4.46754,-3.523694 z m 11.452,-10.256465 -2.83154,2.957386 h -19.00277 v -5.537233 h 19.8837 c 0.88092,0 1.51015,-0.314615 1.69892,-1.006769 -2.26523,-2.01354 -5.91477,-4.719233 -5.91477,-4.719233 l -3.14615,3.901232 H 87.795752 l 0.566307,1.82477 h 19.506161 v 5.537233 H 89.557598 c -0.188769,-0.880923 -0.440461,-1.82477 -0.755077,-2.768616 l -1.006769,0.06292 c 0.314615,3.586616 -1.698924,6.858617 -4.027079,8.117079 -1.384308,0.755078 -2.391078,2.076463 -1.887693,3.64954 0.692154,1.698924 3.083232,1.82477 4.719233,0.818001 1.887693,-1.258462 3.523693,-4.027079 3.209078,-8.11708 h 18.058929 v 17.681391 h 0.818 c 2.57985,0 4.21585,-1.00677 4.21585,-1.321385 V 32.904816 h 19.25447 c -0.50339,2.202308 -1.32139,5.033848 -1.95062,6.858618 l 0.818,0.440461 c 2.13939,-1.636 4.908,-4.404617 6.544,-6.418156 1.13262,-0.06292 1.82477,-0.188769 2.26523,-0.692154 z"
             style="letter-spacing:3.95266px"
             id="path7595" />
          <path
             d="m 109.88176,94.746731 -2.89446,3.146155 h -8.935083 c 0.880923,-2.328155 1.636,-4.719233 2.328153,-7.236157 1.38431,-0.06292 2.07646,-0.629231 2.32816,-1.447231 L 95.157754,87.321805 C 92.8296,101.03904 87.418213,113.43489 81.06298,121.3632 l 0.880923,0.62923 c 3.712463,-3.02031 7.047387,-6.85862 9.94185,-11.38908 2.454001,2.57985 4.908002,5.85185 5.663079,8.68339 4.782158,3.33492 8.494618,-5.78893 -4.719232,-10.31939 1.698923,-2.83154 3.209078,-5.97769 4.530463,-9.312618 h 9.941847 c -2.70569,17.996008 -9.941847,34.544778 -25.924315,44.423708 l 0.692154,0.818 c 20.387081,-9.31262 27.371551,-26.30185 30.643551,-44.36078 1.38431,-0.12585 2.01354,-0.31462 2.51692,-0.943851 z m 16.23416,-4.278771 c 1.57308,-0.251692 2.01354,-0.880923 2.20231,-1.761847 l -7.36201,-0.818 v 24.036627 c -2.57984,-2.89447 -4.71923,-6.16647 -6.2923,-9.69016 l -0.94385,0.44046 c 1.76185,5.66308 4.15292,10.50816 7.23615,14.59816 v 27.68616 h 1.00677 c 1.95062,0 4.15293,-1.13261 4.15293,-1.69892 v -20.45001 c 3.02031,2.7057 6.544,4.84508 10.50816,6.48108 0.62923,-2.454 2.26523,-4.09 4.27877,-4.53046 l 0.12584,-0.69215 c -5.41138,-1.38431 -10.50815,-3.90124 -14.91277,-7.29908 z"
             style="letter-spacing:3.95266px"
             id="path7597" />
          <path
             d="m 97.360063,162.25172 v 5.28554 h 0.755077 c 2.20231,0 4.15292,-0.69216 4.15292,-1.19554 v -4.09 h 16.04539 v 5.03384 h 0.88093 c 2.454,-0.0629 4.15292,-0.75507 4.15292,-1.25846 v -3.77538 h 14.40939 c 0.88093,0 1.51016,-0.31462 1.636,-1.00677 -2.07646,-2.01354 -5.726,-4.84508 -5.726,-4.84508 l -3.14615,3.96415 h -7.17324 v -4.21584 c 1.636,-0.2517 2.13939,-0.818 2.26523,-1.69893 l -7.29908,-0.69215 v 6.60692 h -16.04539 v -4.21584 c 1.57308,-0.2517 2.13939,-0.818 2.20231,-1.69893 l -7.110307,-0.69215 v 6.60692 H 81.629288 l 0.440461,1.8877 z m 24.917547,19.56908 v 4.02708 H 98.303909 v -4.02708 z m -24.225393,10.00477 c 0.188769,-1.44723 0.251692,-2.76861 0.251692,-4.09 h 23.973701 v 4.09 z m 26.050163,7.67662 v 7.11031 h -23.28155 v -7.11031 z m -16.48585,-36.05493 c -3.33493,6.22938 -15.667854,14.59815 -26.427704,18.49939 l 0.314616,0.88092 c 4.090001,-1.06969 8.242926,-2.51692 12.207081,-4.27877 l -0.251692,0.818 v 7.80246 c 0,7.86539 -1.447232,16.48586 -10.445235,23.47032 l 0.692154,0.818 c 6.481079,-3.20908 10.130619,-7.362 12.144158,-11.64077 v 12.08123 h 0.755077 c 1.950617,0 4.215845,-1.13261 4.215845,-1.51015 v -1.95062 h 23.28155 v 3.33493 h 0.818 c 1.51015,0 4.02708,-0.94385 4.09,-1.38431 V 200.0685 c 1.00677,-0.18877 1.76185,-0.62923 2.13939,-1.06969 l -5.1597,-3.77539 -2.39107,2.454 h -22.40063 l -3.964154,-1.636 c 0.251693,-0.75508 0.377539,-1.57308 0.566308,-2.32815 h 24.477086 v 1.32138 h 0.75508 c 1.636,0 3.96415,-1.06969 4.02708,-1.51015 v -11.13739 c 0.94384,-0.18877 1.76184,-0.62923 2.07646,-1.06969 l -5.03385,-3.71247 -2.39108,2.39108 H 99.184833 l -4.593387,-1.82477 c 7.236154,-3.20908 13.717234,-7.23616 17.492624,-11.01154 4.78215,6.10354 14.28354,11.38908 24.16247,14.1577 0.31461,-1.82477 1.95061,-3.77539 4.09,-4.27877 l 0.0629,-1.00677 c -10.00477,-1.57308 -21.268,-4.97093 -27.2457,-9.56432 1.76185,-0.18876 2.51692,-0.44046 2.64277,-1.19553 z m -5.9777,11.452 0.50339,1.82477 h 16.48585 c 0.88092,0 1.38431,-0.31462 1.51015,-1.00677 -1.636,-1.57308 -4.34169,-3.39785 -4.34169,-3.39785 l -2.26523,2.57985 z"
             style="letter-spacing:3.95266px"
             id="path7599" />
          <path
             d="m 135.23977,247.31224 c 0.88092,0 1.51015,-0.31462 1.69892,-1.00677 -2.454,-2.13938 -6.41815,-5.22262 -6.41815,-5.22262 l -3.5237,4.3417 h -15.542 c 0.5663,-5.03385 0.69215,-10.50816 0.818,-16.42293 h 24.98047 c 0.88092,0 1.51015,-0.31462 1.69892,-1.00677 -2.454,-2.20231 -6.544,-5.28554 -6.544,-5.28554 l -3.52369,4.46754 H 82.510211 l 0.440462,1.82477 h 23.659087 c -0.0629,5.91477 -0.0629,11.32616 -0.62923,16.42293 H 84.649597 l 0.566307,1.88769 h 20.512926 c -1.69892,12.33293 -7.047382,22.27478 -24.225388,30.26601 l 0.692154,1.06969 c 20.701704,-7.362 26.994014,-17.68139 29.007544,-31.3357 h 0.50339 c 1.82477,10.8857 6.85862,23.72201 23.28155,31.5874 0.50338,-2.76862 2.2023,-3.96416 4.84507,-4.3417 l 0.12585,-0.69215 c -17.87016,-6.48108 -24.7917,-16.6117 -27.11985,-26.55355 z"
             style="letter-spacing:3.95266px"
             id="path7601" />
        </g>
        <g
           aria-label="uchikoshifes 2022
"
           id="text412"
           style="font-size:12.3472px;font-family:'Noto Serif JP';-inkscape-font-specification:'Noto Serif JP, Normal';letter-spacing:1.32292px;writing-mode:tb-rl;stroke:#000000;stroke-width:0">
          <path
             d="m 53.347552,27.467151 h 3.901715 l 1.913816,0.03704 0.135819,-0.123472 L 59.089,25.429863 h -0.407458 l -0.185208,0.963082 -4.111617,-0.03704 c -0.592666,-0.592666 -0.888999,-1.23472 -0.888999,-1.889122 0,-0.740832 0.419805,-1.123595 1.629831,-1.123595 h 2.123718 l 1.913816,0.06174 0.135819,-0.135819 -0.197555,-1.987899 h -0.39511 l -0.197555,0.975428 -3.444869,-0.03704 c -1.802692,-0.01235 -2.444746,0.666749 -2.444746,1.76565 0,0.851956 0.432152,1.71626 1.284109,2.407704 l -1.222373,0.123472 0.111125,1.876774 h 0.407457 z"
             id="path7604" />
          <path
             d="m 54.397064,35.95145 c -0.642055,-0.432152 -1.024818,-1.111248 -1.024818,-1.889122 0,-1.296456 0.987776,-2.234843 2.728732,-2.234843 1.753302,0 2.765772,0.83961 2.765772,2.07433 0,0.209902 -0.03704,0.469193 -0.123472,0.728484 l -0.950734,0.259292 c -0.382763,0.07408 -0.629707,0.283985 -0.629707,0.716137 0,0.321028 0.160513,0.518583 0.493888,0.592666 1.000123,-0.185208 1.728608,-1.172984 1.728608,-2.370663 0,-1.642177 -1.271762,-3.160883 -3.407827,-3.160883 -2.061983,0 -3.358439,1.222373 -3.358439,3.049759 0,1.259414 0.605013,2.111371 1.654525,2.506481 z"
             id="path7606" />
          <path
             d="m 53.359899,44.670353 c 0.679096,-0.01235 1.617483,-0.0247 2.271885,-0.0247 h 1.284109 c 1.765649,0 2.46944,-0.592665 2.46944,-1.740955 0,-0.876651 -0.506235,-1.790344 -1.271762,-2.46944 h 2.654648 l 1.926164,0.03704 0.09878,-0.172861 -0.567971,-2.049635 h -0.407458 l -0.09878,1.0989 h -6.08717 c -0.629707,0 -1.580442,-0.01235 -2.271885,-0.02469 l -0.148166,-1.01247 h -0.419805 v 3.111494 h 0.419805 l 0.148166,-0.938387 c 0.691443,-0.01235 1.642178,-0.02469 2.271885,-0.02469 h 2.000246 c 0.679096,0.740832 0.901346,1.32115 0.901346,1.93851 0,0.765526 -0.39511,1.135942 -1.642178,1.135942 h -1.259414 c -0.654402,0 -1.592789,-0.01235 -2.271885,-0.02469 l -0.148166,-1.01247 h -0.419805 v 3.111494 h 0.419805 z"
             id="path7608" />
          <path
             d="m 60.928733,49.425793 c 0,0.469194 0.358069,0.864304 0.83961,0.864304 0.493888,0 0.827262,-0.39511 0.827262,-0.864304 0,-0.493888 -0.333374,-0.876651 -0.827262,-0.876651 -0.481541,0 -0.83961,0.382763 -0.83961,0.876651 z m -7.568834,0.592666 c 0.691443,-0.01235 1.642178,-0.0247 2.271885,-0.0247 l 1.815038,0 1.802692,0.0247 0.123472,-0.185208 -0.728485,-2.07433 h -0.407458 l -0.09878,1.098901 c -0.592666,0.02469 -1.037165,0.03704 -1.790344,0.03704 h -0.716138 c -0.629707,0 -1.580442,-0.01235 -2.271885,-0.02469 l -0.148166,-1.037165 h -0.419805 v 3.111495 h 0.419805 z"
             id="path7610" />
          <path
             d="m 53.335205,59.280634 3.679465,-2.284232 1.568095,1.555747 0.172861,1.259415 h 0.444499 v -3.111495 h -0.444499 l -0.22225,1.06186 -2.518829,-2.444746 h 4.753672 l 1.926164,0.06174 0.09878,-0.185208 -0.567971,-2.086677 h -0.407458 l -0.09878,1.098901 h -6.08717 c -0.728485,0 -1.531053,-0.01235 -2.271885,-0.02469 l -0.148166,-1.061859 h -0.419805 v 3.284356 h 0.419805 l 0.148166,-1.06186 c 0.629707,-0.01235 1.32115,-0.02469 1.963205,-0.02469 l 0.913693,0.901346 -3.444869,2.099024 v 1.839732 h 0.419805 z"
             id="path7612" />
          <path
             d="m 52.619067,64.937414 c 0,1.580441 1.123595,3.111494 3.358439,3.111494 2.24719,0 3.407827,-1.5434 3.407827,-3.111494 0,-1.580442 -1.172984,-3.099148 -3.407827,-3.099148 -2.222497,0 -3.358439,1.506359 -3.358439,3.099148 z m 0.518582,0 c 0,-1.185332 0.975429,-1.864428 2.839857,-1.864428 1.876774,0 2.889244,0.679096 2.889244,1.864428 0,1.172984 -1.01247,1.864427 -2.889244,1.864427 -1.864428,0 -2.839857,-0.691443 -2.839857,-1.864427 z"
             id="path7614" />
          <path
             d="m 56.668949,73.001901 c 0.333374,-0.913693 0.592665,-1.259414 1.197678,-1.259414 0.592666,0 0.987776,0.456846 0.987776,1.32115 0,0.333375 -0.08643,0.654402 -0.246944,0.975429 l -1.148289,0.259291 v 0.605013 l 1.370539,0.04939 c 0.358069,-0.592666 0.555624,-1.160637 0.555624,-1.889122 0,-1.518705 -0.888999,-2.358315 -1.889122,-2.358315 -0.92604,0 -1.456969,0.654402 -1.827385,1.654525 l -0.209903,0.629707 c -0.333374,0.888998 -0.642054,1.259414 -1.23472,1.259414 -0.642054,0 -1.086554,-0.493888 -1.086554,-1.555747 0,-0.432152 0.07408,-0.790221 0.22225,-1.111248 l 1.247067,-0.296333 v -0.642054 l -1.481664,0.02469 c -0.333374,0.666749 -0.506235,1.259415 -0.506235,2.037288 0,1.716261 0.888998,2.617607 1.926163,2.617607 0.851957,0 1.481664,-0.518582 1.950858,-1.85208 z"
             id="path7616" />
          <path
             d="m 53.359899,83.807489 c 0.679096,-0.01235 1.617483,-0.02469 2.271885,-0.02469 h 1.284109 c 1.765649,0 2.46944,-0.592666 2.46944,-1.740955 0,-0.876652 -0.506235,-1.790344 -1.271762,-2.46944 h 2.654648 l 1.926164,0.03704 0.09878,-0.172861 -0.567971,-2.049635 h -0.407458 l -0.09878,1.098901 h -6.08717 c -0.629707,0 -1.580442,-0.01235 -2.271885,-0.02469 l -0.148166,-1.012471 h -0.419805 v 3.111495 h 0.419805 l 0.148166,-0.938388 c 0.691443,-0.01235 1.642178,-0.02469 2.271885,-0.02469 h 2.000246 c 0.679096,0.740832 0.901346,1.32115 0.901346,1.93851 0,0.765527 -0.39511,1.135943 -1.642178,1.135943 h -1.259414 c -0.654402,0 -1.592789,-0.01235 -2.271885,-0.0247 l -0.148166,-1.01247 h -0.419805 v 3.111495 h 0.419805 z"
             id="path7618" />
          <path
             d="m 60.928733,88.562928 c 0,0.469193 0.358069,0.864304 0.83961,0.864304 0.493888,0 0.827262,-0.395111 0.827262,-0.864304 0,-0.493888 -0.333374,-0.876652 -0.827262,-0.876652 -0.481541,0 -0.83961,0.382764 -0.83961,0.876652 z m -7.568834,0.592665 c 0.691443,-0.01235 1.642178,-0.02469 2.271885,-0.02469 h 1.815038 l 1.802692,0.02469 0.123472,-0.185208 -0.728485,-2.07433 h -0.407458 l -0.09878,1.098901 c -0.592666,0.02469 -1.037165,0.03704 -1.790344,0.03704 h -0.716138 c -0.629707,0 -1.580442,-0.01235 -2.271885,-0.02469 l -0.148166,-1.037165 h -0.419805 v 3.111494 h 0.419805 z"
             id="path7620" />
          <path
             d="m 59.089,92.330599 h -0.481541 v 1.135942 h -2.975675 c -0.765527,0 -1.506359,-0.01235 -2.271885,-0.03704 l -0.148166,-1.086554 h -0.419805 v 3.494258 h 0.419805 l 0.160513,-1.23472 c 0.753179,-0.01235 1.506359,-0.0247 2.259538,-0.0247 h 2.975675 v 1.852081 h 0.592666 v -1.876775 c 1.382886,-0.04939 2.173107,0.160514 2.679342,0.456846 0.209903,0.123472 0.382764,0.296333 0.506236,0.493889 l -0.321028,0.370416 c -0.296332,0.30868 -0.444499,0.605012 -0.444499,0.963081 0,0.456847 0.259291,0.740832 0.592666,0.765527 0.506235,-0.13582 0.716137,-0.654402 0.716137,-1.284109 0,-0.61736 -0.197555,-1.296456 -0.827262,-1.876775 -0.605013,-0.580318 -1.419928,-0.851957 -2.864551,-0.975429 z"
             id="path7622" />
          <path
             d="m 56.570171,99.604857 c 1.605136,0.135819 2.296579,1.012473 2.296579,1.839733 0,0.87665 -0.728484,1.49401 -1.568094,1.49401 -0.444499,0 -0.753179,-0.13582 -0.753179,-0.72848 z m -0.518582,4.333863 c 0.185208,0.0617 0.444499,0.0988 0.753179,0.0988 1.592789,0 2.580565,-1.0742 2.580565,-2.53117 0,-1.666876 -1.345845,-3.099151 -3.432522,-3.099151 -2.111371,0 -3.333744,1.23472 -3.333744,3.049761 0,1.19768 0.592666,2.06198 1.5434,2.55587 l 0.185208,-0.27164 c -0.580318,-0.48154 -0.975429,-1.01247 -0.975429,-1.90147 0,-1.32115 0.901346,-2.222496 2.69169,-2.24719 z"
             id="path7624" />
          <path
             d="m 56.668949,109.0152 c 0.333374,-0.9137 0.592665,-1.25942 1.197678,-1.25942 0.592666,0 0.987776,0.45685 0.987776,1.32115 0,0.33338 -0.08643,0.6544 -0.246944,0.97543 l -1.148289,0.25929 v 0.60501 l 1.370539,0.0494 c 0.358069,-0.59266 0.555624,-1.16063 0.555624,-1.88912 0,-1.5187 -0.888999,-2.35831 -1.889122,-2.35831 -0.92604,0 -1.456969,0.6544 -1.827385,1.65452 l -0.209903,0.62971 c -0.333374,0.889 -0.642054,1.25941 -1.23472,1.25941 -0.642054,0 -1.086554,-0.49389 -1.086554,-1.55574 0,-0.43216 0.07408,-0.79023 0.22225,-1.11125 l 1.247067,-0.29634 v -0.64205 l -1.481664,0.0247 c -0.333374,0.66675 -0.506235,1.25942 -0.506235,2.03729 0,1.71626 0.888998,2.61761 1.926163,2.61761 0.851957,0 1.481664,-0.51858 1.950858,-1.85208 z"
             id="path7626" />
          <path
             d="m 53.84144,119.21753 c 0.580318,0.61736 1.135942,1.19768 1.506358,1.58044 1.963205,2.07433 2.889245,2.70404 4.049882,2.70404 1.358192,0 2.308926,-0.77787 2.308926,-2.51883 0,-1.34584 -0.666748,-2.53117 -2.049635,-2.71638 -0.259291,0.13582 -0.407457,0.37041 -0.407457,0.6544 0,0.34572 0.234596,0.58032 0.851956,0.74083 l 0.987776,0.27164 c 0.06174,0.27164 0.08643,0.53093 0.08643,0.72848 0,1.01248 -0.728485,1.65453 -1.839733,1.65453 -1.086554,0 -2.136066,-0.56797 -3.568341,-1.93851 -0.61736,-0.59267 -1.395234,-1.3088 -2.136066,-2.04964 h -0.839609 v 5.55624 h 1.049512 z"
             id="path7628" />
          <path
             d="m 57.15049,127.52897 c 3.185577,0 4.025187,0.77787 4.025187,1.64217 0,0.82727 -0.851957,1.60514 -4.025187,1.60514 -3.173231,0 -4.012841,-0.77787 -4.012841,-1.60514 0,-0.8643 0.83961,-1.64217 4.012841,-1.64217 z m 4.556116,1.64217 c 0,-1.45697 -1.23472,-2.83985 -4.556116,-2.83985 -3.333745,0 -4.531423,1.38288 -4.531423,2.83985 0,1.41993 1.197678,2.81517 4.531423,2.81517 3.321396,0 4.556116,-1.39524 4.556116,-2.81517 z"
             id="path7630" />
          <path
             d="m 53.84144,135.42059 c 0.580318,0.61736 1.135942,1.19768 1.506358,1.58044 1.963205,2.07433 2.889245,2.70404 4.049882,2.70404 1.358192,0 2.308926,-0.77788 2.308926,-2.51883 0,-1.34585 -0.666748,-2.53118 -2.049635,-2.71639 -0.259291,0.13582 -0.407457,0.37042 -0.407457,0.65441 0,0.34572 0.234596,0.58031 0.851956,0.74083 l 0.987776,0.27164 c 0.06174,0.27163 0.08643,0.53093 0.08643,0.72848 0,1.01247 -0.728485,1.65453 -1.839733,1.65453 -1.086554,0 -2.136066,-0.56798 -3.568341,-1.93851 -0.61736,-0.59267 -1.395234,-1.30881 -2.136066,-2.04964 h -0.839609 v 5.55624 h 1.049512 z"
             id="path7632" />
          <path
             d="m 53.84144,143.52212 c 0.580318,0.61736 1.135942,1.19768 1.506358,1.58044 1.963205,2.07433 2.889245,2.70404 4.049882,2.70404 1.358192,0 2.308926,-0.77787 2.308926,-2.51883 0,-1.34584 -0.666748,-2.53118 -2.049635,-2.71638 -0.259291,0.13582 -0.407457,0.37041 -0.407457,0.6544 0,0.34572 0.234596,0.58032 0.851956,0.74083 l 0.987776,0.27164 c 0.06174,0.27164 0.08643,0.53093 0.08643,0.72848 0,1.01247 -0.728485,1.65453 -1.839733,1.65453 -1.086554,0 -2.136066,-0.56797 -3.568341,-1.93851 -0.61736,-0.59267 -1.395234,-1.30881 -2.136066,-2.04964 h -0.839609 v 5.55624 h 1.049512 z"
             id="path7634" />
        </g>
      </g>
    </g>
  </g>
</svg>
